ComicNeue-Angular_Bold_Oblique.ufo
<glyph name="exclam" format="1">
  <advance width="211"/>
  <unicode hex="0021"/>
  <outline>
    <contour>
      <point x="127" y="179" type="line"/>
      <point x="29" y="160" type="line"/>
      <point x="135" y="662" type="line"/>
      <point x="233" y="679" type="line"/>
    </contour>
    <contour>
      <point x="122" y="134" type="line"/>
      <point x="86" y="12" type="line"/>
      <point x="-16" y="-5" type="line"/>
      <point x="20" y="117" type="line"/>
    </contour>
  </outline>
</glyph>
<glyph name="quotedbl" format="1">
  <advance width="338"/>
  <unicode hex="0022"/>
  <outline>
    <contour>
      <point x="179" y="467" type="line"/>
      <point x="80" y="450" type="line"/>
      <point x="125" y="660" type="line"/>
      <point x="224" y="678" type="line"/>
    </contour>
    <contour>
      <point x="328" y="467" type="line"/>
      <point x="229" y="450" type="line"/>
      <point x="274" y="660" type="line"/>
      <point x="373" y="678" type="line"/>
    </contour>
  </outline>
</glyph>
<glyph name="numbersign" format="1">
  <advance width="777"/>
  <unicode hex="0023"/>
  <outline>
    <contour>
      <point x="688" y="392" type="line"/>
      <point x="561" y="392" type="line"/>
      <point x="509" y="287" type="line"/>
      <point x="653" y="287" type="line"/>
      <point x="605" y="193" type="line"/>
      <point x="461" y="193" type="line"/>
      <point x="367" y="5" type="line"/>
      <point x="266" y="-2" type="line"/>
      <point x="363" y="193" type="line"/>
      <point x="270" y="193" type="line"/>
      <point x="176" y="5" type="line"/>
      <point x="75" y="-2" type="line"/>
      <point x="172" y="193" type="line"/>
      <point x="41" y="193" type="line"/>
      <point x="88" y="287" type="line"/>
      <point x="220" y="287" type="line"/>
      <point x="272" y="392" type="line"/>
      <point x="119" y="392" type="line"/>
      <point x="166" y="486" type="line"/>
      <point x="319" y="486" type="line"/>
      <point x="412" y="671" type="line"/>
      <point x="514" y="678" type="line"/>
      <point x="418" y="486" type="line"/>
      <point x="510" y="486" type="line"/>
      <point x="602" y="670" type="line"/>
      <point x="702" y="677" type="line"/>
      <point x="608" y="486" type="line"/>
      <point x="735" y="486" type="line"/>
    </contour>
    <contour>
      <point x="411" y="287" type="line"/>
      <point x="463" y="392" type="line"/>
      <point x="370" y="392" type="line"/>
      <point x="318" y="287" type="line"/>
    </contour>
  </outline>
</glyph>
<glyph name="dollar" format="1">
  <advance width="631"/>
  <unicode hex="0024"/>
  <outline>
    <contour>
      <point x="422" y="573" type="curve"/>
      <point x="383" y="387" type="line"/>
      <point x="482" y="353"/>
      <point x="532" y="302"/>
      <point x="532" y="232" type="curve" smooth="yes"/>
      <point x="532" y="105"/>
      <point x="414" y="22"/>
      <point x="301" y="4" type="curve"/>
      <point x="289" y="-55" type="line"/>
      <point x="191" y="-73" type="line"/>
      <point x="207" y="3" type="line"/>
      <point x="114" y="18"/>
      <point x="49" y="85"/>
      <point x="38" y="180" type="curve"/>
      <point x="142" y="196" type="line"/>
      <point x="150" y="139"/>
      <point x="185" y="108"/>
      <point x="227" y="98" type="curve"/>
      <point x="273" y="314" type="line"/>
      <point x="203" y="340"/>
      <point x="140" y="384"/>
      <point x="140" y="458" type="curve" smooth="yes"/>
      <point x="140" y="587"/>
      <point x="268" y="647"/>
      <point x="347" y="659" type="curve"/>
      <point x="359" y="716" type="line"/>
      <point x="456" y="733" type="line"/>
      <point x="442" y="664" type="line"/>
      <point x="506" y="658"/>
      <point x="596" y="635"/>
      <point x="596" y="545" type="curve" smooth="yes"/>
      <point x="596" y="525"/>
      <point x="591" y="507"/>
      <point x="582" y="477" type="curve"/>
      <point x="482" y="458" type="line"/>
      <point x="497" y="491"/>
      <point x="499" y="512"/>
      <point x="499" y="517" type="curve" smooth="yes"/>
      <point x="499" y="549"/>
      <point x="465" y="567"/>
    </contour>
    <contour>
      <point x="327" y="566" type="line"/>
      <point x="291" y="555"/>
      <point x="245" y="523"/>
      <point x="245" y="476" type="curve" smooth="yes"/>
      <point x="245" y="454"/>
      <point x="261" y="436"/>
      <point x="296" y="419" type="curve"/>
    </contour>
    <contour>
      <point x="322" y="102" type="line"/>
      <point x="370" y="116"/>
      <point x="427" y="154"/>
      <point x="427" y="213" type="curve" smooth="yes"/>
      <point x="427" y="248"/>
      <point x="398" y="267"/>
      <point x="361" y="283" type="curve"/>
    </contour>
  </outline>
</glyph>
<glyph name="parenleft" format="1">
  <advance width="403"/>
  <unicode hex="0028"/>
  <outline>
    <contour>
      <point x="256" y="-48" type="curve"/>
      <point x="177" y="-116" type="line"/>
      <point x="100" y="-24"/>
      <point x="63" y="107"/>
      <point x="63" y="229" type="curve" smooth="yes"/>
      <point x="63" y="425"/>
      <point x="188" y="646"/>
      <point x="393" y="792" type="curve"/>
      <point x="434" y="718" type="line"/>
      <point x="279" y="604"/>
      <point x="161" y="426"/>
      <point x="161" y="249" type="curve" smooth="yes"/>
      <point x="161" y="138"/>
      <point x="196" y="24"/>
    </contour>
  </outline>
</glyph>
<glyph name="asterisk" format="1">
  <advance width="443"/>
  <unicode hex="002A"/>
  <outline>
    <contour>
      <point x="342" y="514" type="line"/>
      <point x="369" y="460" type="line"/>
      <point x="279" y="404" type="line"/>
      <point x="251" y="459" type="line"/>
      <point x="199" y="404" type="line"/>
      <point x="134" y="460" type="line"/>
      <point x="186" y="514" type="line"/>
      <point x="125" y="535" type="line"/>
      <point x="175" y="626" type="line"/>
      <point x="235" y="605" type="line"/>
      <point x="250" y="673" type="line"/>
      <point x="345" y="673" type="line"/>
      <point x="330" y="605" type="line"/>
      <point x="400" y="626" type="line"/>
      <point x="409" y="534" type="line"/>
    </contour>
  </outline>
</glyph>
<glyph name="plus" format="1">
  <advance width="467"/>
  <unicode hex="002B"/>
  <outline>
    <contour>
      <point x="410" y="298" type="line"/>
      <point x="372" y="204" type="line"/>
      <point x="258" y="204" type="line"/>
      <point x="233" y="89" type="line"/>
      <point x="136" y="73" type="line"/>
      <point x="164" y="204" type="line"/>
      <point x="33" y="204" type="line"/>
      <point x="69" y="298" type="line"/>
      <point x="184" y="298" type="line"/>
      <point x="207" y="407" type="line"/>
      <point x="305" y="426" type="line"/>
      <point x="278" y="298" type="line"/>
    </contour>
  </outline>
</glyph>
<glyph name="comma" format="1">
  <advance width="343"/>
  <unicode hex="002C"/>
  <outline>
    <contour>
      <point x="135" y="125" type="line"/>
      <point x="222" y="69" type="line"/>
      <point x="75" y="-121" type="line"/>
      <point x="0" y="-73" type="line"/>
      <point x="67" y="14" type="line"/>
      <point x="30" y="37" type="line"/>
    </contour>
  </outline>
</glyph>
<glyph name="slash" format="1">
  <advance width="518"/>
  <unicode hex="002F"/>
  <outline>
    <contour>
      <point x="469" y="675" type="line"/>
      <point x="576" y="675" type="line"/>
      <point x="63" y="0" type="line"/>
      <point x="-44" y="0" type="line"/>
    </contour>
  </outline>
</glyph>
<glyph name="two" format="1">
  <advance width="550"/>
  <unicode hex="0032"/>
  <outline>
    <contour>
      <point x="124" y="95" type="curve"/>
      <point x="438" y="95" type="line"/>
      <point x="401" y="0" type="line"/>
      <point x="6" y="0" type="line"/>
      <point x="15" y="47" type="line" smooth="yes"/>
      <point x="44" y="196"/>
      <point x="118" y="256"/>
      <point x="243" y="330" type="curve" smooth="yes"/>
      <point x="363" y="401"/>
      <point x="415" y="452"/>
      <point x="415" y="502" type="curve" smooth="yes"/>
      <point x="415" y="547"/>
      <point x="366" y="564"/>
      <point x="330" y="564" type="curve" smooth="yes"/>
      <point x="253" y="564"/>
      <point x="172" y="475"/>
      <point x="161" y="461" type="curve"/>
      <point x="112" y="537" type="line"/>
      <point x="148" y="574"/>
      <point x="241" y="658"/>
      <point x="350" y="658" type="curve" smooth="yes"/>
      <point x="475" y="658"/>
      <point x="512" y="586"/>
      <point x="512" y="523" type="curve" smooth="yes"/>
      <point x="512" y="404"/>
      <point x="391" y="317"/>
      <point x="278" y="251" type="curve" smooth="yes"/>
      <point x="197" y="204"/>
      <point x="149" y="169"/>
    </contour>
  </outline>
</glyph>
<glyph name="six" format="1">
  <advance width="572"/>
  <unicode hex="0036"/>
  <outline>
    <contour>
      <point x="447" y="676" type="curve"/>
      <point x="458" y="587" type="line"/>
      <point x="378" y="557"/>
      <point x="291" y="498"/>
      <point x="237" y="434" type="curve"/>
      <point x="265" y="443"/>
      <point x="293" y="447"/>
      <point x="328" y="447" type="curve" smooth="yes"/>
      <point x="347" y="447"/>
      <point x="486" y="442"/>
      <point x="486" y="299" type="curve" smooth="yes"/>
      <point x="486" y="161"/>
      <point x="378" y="-5"/>
      <point x="222" y="-5" type="curve" smooth="yes"/>
      <point x="98" y="-5"/>
      <point x="46" y="70"/>
      <point x="46" y="171" type="curve" smooth="yes"/>
      <point x="46" y="393"/>
      <point x="227" y="590"/>
    </contour>
    <contour>
      <point x="161" y="300" type="curve"/>
      <point x="148" y="262"/>
      <point x="141" y="217"/>
      <point x="141" y="189" type="curve" smooth="yes"/>
      <point x="141" y="108"/>
      <point x="193" y="89"/>
      <point x="242" y="89" type="curve" smooth="yes"/>
      <point x="329" y="89"/>
      <point x="392" y="193"/>
      <point x="392" y="275" type="curve" smooth="yes"/>
      <point x="392" y="348"/>
      <point x="330" y="354"/>
      <point x="308" y="354" type="curve" smooth="yes"/>
      <point x="239" y="354"/>
      <point x="185" y="318"/>
    </contour>
  </outline>
</glyph>
<glyph name="seven" format="1">
  <advance width="527"/>
  <unicode hex="0037"/>
  <outline>
    <contour>
      <point x="118" y="-8" type="line"/>
      <point x="45" y="35" type="line"/>
      <point x="426" y="565" type="line"/>
      <point x="138" y="565" type="line"/>
      <point x="142" y="659" type="line"/>
      <point x="598" y="659" type="line"/>
    </contour>
  </outline>
</glyph>
<glyph name="nine" format="1">
  <advance width="572"/>
  <unicode hex="0039"/>
  <outline>
    <contour>
      <point x="126" y="-9" type="curve"/>
      <point x="114" y="78" type="line"/>
      <point x="203" y="111"/>
      <point x="283" y="167"/>
      <point x="336" y="231" type="curve"/>
      <point x="307" y="222"/>
      <point x="280" y="217"/>
      <point x="244" y="217" type="curve" smooth="yes"/>
      <point x="226" y="217"/>
      <point x="86" y="222"/>
      <point x="86" y="365" type="curve" smooth="yes"/>
      <point x="86" y="545"/>
      <point x="231" y="669"/>
      <point x="352" y="669" type="curve" smooth="yes"/>
      <point x="475" y="669"/>
      <point x="526" y="596"/>
      <point x="526" y="495" type="curve" smooth="yes"/>
      <point x="526" y="237"/>
      <point x="290" y="48"/>
    </contour>
    <contour>
      <point x="410" y="364" type="curve"/>
      <point x="425" y="402"/>
      <point x="432" y="445"/>
      <point x="432" y="474" type="curve" smooth="yes"/>
      <point x="432" y="556"/>
      <point x="379" y="576"/>
      <point x="330" y="576" type="curve" smooth="yes"/>
      <point x="243" y="576"/>
      <point x="182" y="470"/>
      <point x="182" y="389" type="curve" smooth="yes"/>
      <point x="182" y="317"/>
      <point x="244" y="311"/>
      <point x="264" y="311" type="curve" smooth="yes"/>
      <point x="333" y="311"/>
      <point x="387" y="346"/>
    </contour>
  </outline>
</glyph>
<glyph name="colon" format="1">
  <advance width="276"/>
  <unicode hex="003A"/>
  <outline>
    <contour>
      <point x="249" y="454" type="line"/>
      <point x="209" y="332" type="line"/>
      <point x="92" y="317" type="line"/>
      <point x="131" y="439" type="line"/>
    </contour>
    <contour>
      <point x="154" y="133" type="line"/>
      <point x="117" y="12" type="line"/>
      <point x="-1" y="-4" type="line"/>
      <point x="39" y="118" type="line"/>
    </contour>
  </outline>
</glyph>
<glyph name="equal" format="1">
  <advance width="531"/>
  <unicode hex="003D"/>
  <outline>
    <contour>
      <point x="433" y="292" type="line"/>
      <point x="74" y="292" type="line"/>
      <point x="111" y="386" type="line"/>
      <point x="470" y="386" type="line"/>
    </contour>
    <contour>
      <point x="395" y="113" type="line"/>
      <point x="36" y="113" type="line"/>
      <point x="72" y="206" type="line"/>
      <point x="431" y="206" type="line"/>
    </contour>
  </outline>
</glyph>
<glyph name="question" format="1">
  <advance width="568"/>
  <unicode hex="003F"/>
  <outline>
    <contour>
      <point x="215" y="124" type="line"/>
      <point x="181" y="12" type="line"/>
      <point x="80" y="-5" type="line"/>
      <point x="113" y="107" type="line"/>
    </contour>
    <contour>
      <point x="358" y="694" type="curve" smooth="yes"/>
      <point x="471" y="694"/>
      <point x="534" y="636"/>
      <point x="534" y="543" type="curve" smooth="yes"/>
      <point x="534" y="410"/>
      <point x="436" y="340"/>
      <point x="369" y="290" type="curve" smooth="yes"/>
      <point x="182" y="149" type="line"/>
      <point x="152" y="235" type="line"/>
      <point x="322" y="362" type="line" smooth="yes"/>
      <point x="376" y="402"/>
      <point x="437" y="442"/>
      <point x="437" y="516" type="curve" smooth="yes"/>
      <point x="437" y="561"/>
      <point x="410" y="599"/>
      <point x="341" y="599" type="curve" smooth="yes"/>
      <point x="255" y="599"/>
      <point x="179" y="507"/>
      <point x="170" y="495" type="curve"/>
      <point x="114" y="566" type="line"/>
      <point x="147" y="603"/>
      <point x="249" y="694"/>
    </contour>
  </outline>
</glyph>
<glyph name="A" format="1">
  <advance width="649"/>
  <unicode hex="0041"/>
  <outline>
    <contour>
      <point x="465" y="684" type="line"/>
      <point x="539" y="45" type="line"/>
      <point x="443" y="-12" type="line"/>
      <point x="413" y="240" type="line"/>
      <point x="190" y="195" type="line"/>
      <point x="72" y="-8" type="line"/>
      <point x="-6" y="36" type="line"/>
      <point x="74" y="171" type="line"/>
      <point x="50" y="168" type="line"/>
      <point x="54" y="264" type="line"/>
      <point x="137" y="279" type="line"/>
      <point x="363" y="666" type="line"/>
    </contour>
    <contour>
      <point x="253" y="303" type="line"/>
      <point x="402" y="334" type="line"/>
      <point x="380" y="518" type="line"/>
    </contour>
  </outline>
</glyph>
<glyph name="B" format="1">
  <advance width="628"/>
  <unicode hex="0042"/>
  <outline>
    <contour>
      <point x="6" y="0" type="line"/>
      <point x="150" y="681" type="line"/>
      <point x="370" y="681" type="line" smooth="yes"/>
      <point x="491" y="681"/>
      <point x="559" y="628"/>
      <point x="559" y="538" type="curve" smooth="yes"/>
      <point x="559" y="466"/>
      <point x="524" y="412"/>
      <point x="462" y="374" type="curve"/>
      <point x="510" y="357"/>
      <point x="554" y="309"/>
      <point x="554" y="244" type="curve" smooth="yes"/>
      <point x="554" y="39"/>
      <point x="254" y="0"/>
      <point x="92" y="0" type="curve" smooth="yes"/>
    </contour>
    <contour>
      <point x="168" y="309" type="line"/>
      <point x="123" y="96" type="line"/>
      <point x="223" y="96"/>
      <point x="456" y="115"/>
      <point x="456" y="230" type="curve" smooth="yes"/>
      <point x="456" y="296"/>
      <point x="369" y="309"/>
      <point x="316" y="309" type="curve" smooth="yes"/>
    </contour>
    <contour>
      <point x="227" y="584" type="line"/>
      <point x="189" y="405" type="line"/>
      <point x="296" y="405" type="line" smooth="yes"/>
      <point x="363" y="405"/>
      <point x="459" y="427"/>
      <point x="459" y="515" type="curve" smooth="yes"/>
      <point x="459" y="550"/>
      <point x="437" y="584"/>
      <point x="350" y="584" type="curve" smooth="yes"/>
    </contour>
  </outline>
</glyph>
<glyph name="I" format="1">
  <advance width="463"/>
  <unicode hex="0049"/>
  <outline>
    <contour>
      <point x="450" y="582" type="line"/>
      <point x="344" y="582" type="line"/>
      <point x="242" y="99" type="line"/>
      <point x="366" y="99" type="line"/>
      <point x="327" y="0" type="line"/>
      <point x="-7" y="0" type="line"/>
      <point x="31" y="99" type="line"/>
      <point x="143" y="99" type="line"/>
      <point x="245" y="582" type="line"/>
      <point x="116" y="582" type="line"/>
      <point x="154" y="681" type="line"/>
      <point x="489" y="681" type="line"/>
    </contour>
  </outline>
</glyph>
<glyph name="L" format="1">
  <advance width="513"/>
  <unicode hex="004C"/>
  <outline>
    <contour>
      <point x="3" y="-2" type="line"/>
      <point x="145" y="665" type="line"/>
      <point x="248" y="683" type="line"/>
      <point x="125" y="104" type="line"/>
      <point x="447" y="128" type="line"/>
      <point x="431" y="29" type="line"/>
    </contour>
  </outline>
</glyph>
<glyph name="O" format="1">
  <advance width="686"/>
  <unicode hex="004F"/>
  <outline>
    <contour>
      <point x="256" y="-2" type="curve" smooth="yes"/>
      <point x="132" y="-2"/>
      <point x="59" y="99"/>
      <point x="59" y="232" type="curve" smooth="yes"/>
      <point x="59" y="464"/>
      <point x="265" y="682"/>
      <point x="440" y="682" type="curve" smooth="yes"/>
      <point x="563" y="682"/>
      <point x="638" y="581"/>
      <point x="638" y="448" type="curve" smooth="yes"/>
      <point x="638" y="215"/>
      <point x="433" y="-2"/>
    </contour>
    <contour>
      <point x="414" y="587" type="curve" smooth="yes"/>
      <point x="302" y="587"/>
      <point x="157" y="430"/>
      <point x="157" y="251" type="curve" smooth="yes"/>
      <point x="157" y="160"/>
      <point x="201" y="93"/>
      <point x="276" y="93" type="curve" smooth="yes"/>
      <point x="390" y="93"/>
      <point x="538" y="252"/>
      <point x="538" y="421" type="curve" smooth="yes"/>
      <point x="538" y="511"/>
      <point x="494" y="587"/>
    </contour>
  </outline>
</glyph>
<glyph name="P" format="1">
  <advance width="571"/>
  <unicode hex="0050"/>
  <outline>
    <contour>
      <point x="150" y="223" type="curve"/>
      <point x="105" y="12" type="line"/>
      <point x="3" y="-5" type="line"/>
      <point x="148" y="673" type="line"/>
      <point x="178" y="675"/>
      <point x="244" y="679"/>
      <point x="277" y="679" type="curve" smooth="yes"/>
      <point x="403" y="679"/>
      <point x="574" y="655"/>
      <point x="574" y="510" type="curve" smooth="yes"/>
      <point x="574" y="310"/>
      <point x="335" y="234"/>
    </contour>
    <contour>
      <point x="226" y="580" type="line"/>
      <point x="171" y="321" type="line"/>
      <point x="361" y="336"/>
      <point x="471" y="398"/>
      <point x="471" y="480" type="curve" smooth="yes"/>
      <point x="471" y="536"/>
      <point x="420" y="580"/>
      <point x="246" y="580" type="curve" smooth="yes"/>
    </contour>
  </outline>
</glyph>
<glyph name="Q" format="1">
  <advance width="747"/>
  <unicode hex="0051"/>
  <outline>
    <contour>
      <point x="541" y="114" type="curve"/>
      <point x="634" y="42" type="line"/>
      <point x="574" y="-42" type="line"/>
      <point x="453" y="48" type="line"/>
      <point x="397" y="17"/>
      <point x="337" y="-1"/>
      <point x="280" y="-1" type="curve" smooth="yes"/>
      <point x="140" y="-1"/>
      <point x="53" y="102"/>
      <point x="53" y="239" type="curve" smooth="yes"/>
      <point x="53" y="468"/>
      <point x="273" y="679"/>
      <point x="468" y="679" type="curve" smooth="yes"/>
      <point x="609" y="679"/>
      <point x="695" y="575"/>
      <point x="695" y="438" type="curve" smooth="yes"/>
      <point x="695" y="314"/>
      <point x="632" y="195"/>
    </contour>
    <contour>
      <point x="470" y="170" type="line"/>
      <point x="535" y="229"/>
      <point x="589" y="319"/>
      <point x="589" y="409" type="curve" smooth="yes"/>
      <point x="589" y="502"/>
      <point x="534" y="582"/>
      <point x="440" y="582" type="curve" smooth="yes"/>
      <point x="311" y="582"/>
      <point x="158" y="428"/>
      <point x="158" y="257" type="curve" smooth="yes"/>
      <point x="158" y="162"/>
      <point x="212" y="95"/>
      <point x="301" y="95" type="curve" smooth="yes"/>
      <point x="327" y="95"/>
      <point x="349" y="100"/>
      <point x="375" y="111" type="curve"/>
      <point x="287" y="175" type="line"/>
      <point x="388" y="230" type="line"/>
    </contour>
  </outline>
</glyph>
<glyph name="S" format="1">
  <advance width="625"/>
  <unicode hex="0053"/>
  <outline>
    <contour>
      <point x="313" y="308" type="curve"/>
      <point x="228" y="331"/>
      <point x="136" y="380"/>
      <point x="136" y="468" type="curve" smooth="yes"/>
      <point x="136" y="613"/>
      <point x="286" y="681"/>
      <point x="419" y="681" type="curve" smooth="yes"/>
      <point x="504" y="681"/>
      <point x="605" y="652"/>
      <point x="605" y="558" type="curve" smooth="yes"/>
      <point x="605" y="553.2"/>
      <point x="605.173" y="549.494"/>
      <point x="605.173" y="545.957" type="curve" smooth="yes"/>
      <point x="605.173" y="534.755"/>
      <point x="603.44" y="525.24"/>
      <point x="589" y="488" type="curve"/>
      <point x="486" y="470" type="line"/>
      <point x="506" y="499"/>
      <point x="505" y="523"/>
      <point x="505" y="525" type="curve" smooth="yes"/>
      <point x="505" y="574"/>
      <point x="440" y="588"/>
      <point x="399" y="588" type="curve" smooth="yes"/>
      <point x="344" y="588"/>
      <point x="245" y="568"/>
      <point x="245" y="490" type="curve" smooth="yes"/>
      <point x="245" y="453"/>
      <point x="284" y="428"/>
      <point x="358" y="406" type="curve" smooth="yes"/>
      <point x="479" y="370"/>
      <point x="539" y="315"/>
      <point x="539" y="237" type="curve" smooth="yes"/>
      <point x="539" y="75"/>
      <point x="360" y="-1"/>
      <point x="251" y="-1" type="curve" smooth="yes"/>
      <point x="131" y="-1"/>
      <point x="45" y="73"/>
      <point x="32" y="184" type="curve"/>
      <point x="139" y="200" type="line"/>
      <point x="150" y="128"/>
      <point x="213" y="95"/>
      <point x="271" y="95" type="curve" smooth="yes"/>
      <point x="350" y="95"/>
      <point x="431" y="144"/>
      <point x="431" y="217" type="curve" smooth="yes"/>
      <point x="431" y="245"/>
      <point x="414" y="279"/>
    </contour>
  </outline>
</glyph>
<glyph name="U" format="1">
  <advance width="710"/>
  <unicode hex="0055"/>
  <outline>
    <contour>
      <point x="288" y="0" type="curve" smooth="yes"/>
      <point x="126" y="0"/>
      <point x="73" y="89"/>
      <point x="73" y="226" type="curve" smooth="yes"/>
      <point x="73" y="346"/>
      <point x="129" y="562"/>
      <point x="152" y="668" type="curve"/>
      <point x="255" y="685" type="line"/>
      <point x="236" y="606"/>
      <point x="174" y="364"/>
      <point x="174" y="249" type="curve" smooth="yes"/>
      <point x="174" y="157"/>
      <point x="206" y="92"/>
      <point x="307" y="92" type="curve" smooth="yes"/>
      <point x="476" y="92"/>
      <point x="528" y="276"/>
      <point x="560" y="425" type="curve" smooth="yes"/>
      <point x="576" y="502"/>
      <point x="602" y="633"/>
      <point x="608" y="666" type="curve"/>
      <point x="711" y="685" type="line"/>
      <point x="707" y="662"/>
      <point x="682" y="536"/>
      <point x="668" y="467" type="curve" smooth="yes"/>
      <point x="620" y="240"/>
      <point x="548" y="0"/>
    </contour>
  </outline>
</glyph>
<glyph name="W" format="1">
  <advance width="904"/>
  <unicode hex="0057"/>
  <outline>
    <contour>
      <point x="961" y="686" type="line"/>
      <point x="589" y="12" type="line"/>
      <point x="496" y="-3" type="line"/>
      <point x="476" y="474" type="line"/>
      <point x="240" y="12" type="line"/>
      <point x="148" y="-3" type="line"/>
      <point x="94" y="667" type="line"/>
      <point x="194" y="685" type="line"/>
      <point x="234" y="198" type="line"/>
      <point x="314" y="353"/>
      <point x="397" y="517"/>
      <point x="475" y="669" type="curve"/>
      <point x="567" y="685" type="line"/>
      <point x="585" y="191" type="line"/>
      <point x="848" y="668" type="line"/>
    </contour>
  </outline>
</glyph>
<glyph name="Y" format="1">
  <advance width="654"/>
  <unicode hex="0059"/>
  <outline>
    <contour>
      <point x="336" y="318" type="line"/>
      <point x="625" y="677" type="line"/>
      <point x="738" y="677" type="line"/>
      <point x="193" y="0" type="line"/>
      <point x="80" y="0" type="line"/>
      <point x="258" y="223" type="line"/>
      <point x="90" y="677" type="line"/>
      <point x="202" y="677" type="line"/>
    </contour>
  </outline>
</glyph>
<glyph name="Z" format="1">
  <advance width="647"/>
  <unicode hex="005A"/>
  <outline>
    <contour>
      <point x="22" y="0" type="line"/>
      <point x="2" y="77" type="line"/>
      <point x="509" y="578" type="line"/>
      <point x="137" y="578" type="line"/>
      <point x="176" y="681" type="line"/>
      <point x="636" y="681" type="line"/>
      <point x="656" y="603" type="line"/>
      <point x="148" y="103" type="line"/>
      <point x="540" y="103" type="line"/>
      <point x="502" y="0" type="line"/>
    </contour>
  </outline>
</glyph>
<glyph name="bracketleft" format="1">
  <advance width="341"/>
  <unicode hex="005B"/>
  <outline>
    <contour>
      <point x="172" y="-113" type="line"/>
      <point x="-22" y="-113" type="line"/>
      <point x="168" y="778" type="line"/>
      <point x="393" y="778" type="line"/>
      <point x="356" y="683" type="line"/>
      <point x="242" y="683" type="line"/>
      <point x="93" y="-18" type="line"/>
      <point x="211" y="-18" type="line"/>
    </contour>
  </outline>
</glyph>
<glyph name="underscore" format="1">
  <advance width="502"/>
  <unicode hex="005F"/>
  <outline>
    <contour>
      <point x="412" y="-49" type="line"/>
      <point x="-79" y="-49" type="line"/>
      <point x="-44" y="45" type="line"/>
      <point x="449" y="45" type="line"/>
    </contour>
  </outline>
</glyph>
<glyph name="b" format="1">
  <advance width="554"/>
  <unicode hex="0062"/>
  <outline>
    <contour>
      <point x="360" y="491" type="curve" smooth="yes"/>
      <point x="453" y="491"/>
      <point x="491" y="415"/>
      <point x="491" y="330" type="curve" smooth="yes"/>
      <point x="491" y="180"/>
      <point x="388" y="1"/>
      <point x="206" y="1" type="curve" smooth="yes"/>
      <point x="170" y="1"/>
      <point x="133" y="8"/>
      <point x="106" y="16" type="curve"/>
      <point x="101" y="-5" type="line"/>
      <point x="9" y="12" type="line"/>
      <point x="147" y="661" type="line"/>
      <point x="247" y="679" type="line"/>
      <point x="198" y="448" type="line"/>
      <point x="243" y="476"/>
      <point x="298" y="491"/>
    </contour>
    <contour>
      <point x="219" y="95" type="curve" smooth="yes"/>
      <point x="323" y="95"/>
      <point x="395" y="193"/>
      <point x="395" y="310" type="curve" smooth="yes"/>
      <point x="395" y="354"/>
      <point x="378" y="395"/>
      <point x="326" y="395" type="curve" smooth="yes"/>
      <point x="242" y="395"/>
      <point x="177" y="346"/>
      <point x="164" y="287" type="curve" smooth="yes"/>
      <point x="126" y="112" type="line"/>
      <point x="146" y="105"/>
      <point x="182" y="95"/>
    </contour>
  </outline>
</glyph>
<glyph name="d" format="1">
  <advance width="552"/>
  <unicode hex="0064"/>
  <outline>
    <contour>
      <point x="455" y="667" type="line"/>
      <point x="557" y="684" type="line"/>
      <point x="399" y="12" type="line"/>
      <point x="299" y="-5" type="line"/>
      <point x="310" y="47" type="line"/>
      <point x="271" y="23"/>
      <point x="229" y="5"/>
      <point x="172" y="5" type="curve" smooth="yes"/>
      <point x="74" y="5"/>
      <point x="34" y="78"/>
      <point x="34" y="163" type="curve" smooth="yes"/>
      <point x="34" y="347"/>
      <point x="162" y="496"/>
      <point x="320" y="496" type="curve" smooth="yes"/>
      <point x="350" y="496"/>
      <point x="382" y="488"/>
      <point x="411" y="479" type="curve"/>
    </contour>
    <contour>
      <point x="340" y="171" type="curve" smooth="yes"/>
      <point x="388" y="376" type="line"/>
      <point x="371" y="386"/>
      <point x="337" y="402"/>
      <point x="295" y="402" type="curve" smooth="yes"/>
      <point x="158" y="402"/>
      <point x="132" y="222"/>
      <point x="132" y="175" type="curve" smooth="yes"/>
      <point x="132" y="134"/>
      <point x="144" y="95"/>
      <point x="191" y="95" type="curve" smooth="yes"/>
      <point x="269" y="95"/>
      <point x="335" y="149"/>
    </contour>
  </outline>
</glyph>
<glyph name="f" format="1">
  <advance width="358"/>
  <unicode hex="0066"/>
  <outline>
    <contour>
      <point x="435" y="673" type="curve"/>
      <point x="376" y="582" type="line"/>
      <point x="285" y="582"/>
      <point x="253" y="562"/>
      <point x="237" y="502" type="curve"/>
      <point x="360" y="502" type="line"/>
      <point x="320" y="410" type="line"/>
      <point x="212" y="410" type="line"/>
      <point x="127" y="12" type="line"/>
      <point x="27" y="-5" type="line"/>
      <point x="116" y="410" type="line"/>
      <point x="34" y="410" type="line"/>
      <point x="69" y="502" type="line"/>
      <point x="136" y="502" type="line"/>
      <point x="169" y="630"/>
      <point x="243" y="677"/>
      <point x="373" y="677" type="curve" smooth="yes"/>
      <point x="384" y="677"/>
      <point x="395" y="677"/>
    </contour>
  </outline>
</glyph>
<glyph name="i" format="1">
  <advance width="247"/>
  <unicode hex="0069"/>
  <outline>
    <contour>
      <point x="114" y="489" type="line"/>
      <point x="217" y="505" type="line"/>
      <point x="112" y="12" type="line"/>
      <point x="9" y="-5" type="line"/>
    </contour>
    <contour>
      <point x="258" y="677" type="line"/>
      <point x="224" y="555" type="line"/>
      <point x="123" y="538" type="line"/>
      <point x="158" y="660" type="line"/>
    </contour>
  </outline>
</glyph>
<glyph name="m" format="1">
  <advance width="843"/>
  <unicode hex="006D"/>
  <outline>
    <contour>
      <point x="178" y="289" type="curve" smooth="yes"/>
      <point x="169" y="278"/>
      <point x="164" y="262"/>
      <point x="164" y="262" type="curve"/>
      <point x="111" y="12" type="line"/>
      <point x="11" y="-5" type="line"/>
      <point x="115" y="480" type="line"/>
      <point x="214" y="497" type="line"/>
      <point x="197" y="417" type="line"/>
      <point x="255" y="471"/>
      <point x="313" y="510"/>
      <point x="369" y="510" type="curve" smooth="yes"/>
      <point x="416" y="510"/>
      <point x="464" y="495"/>
      <point x="479" y="432" type="curve"/>
      <point x="533" y="479"/>
      <point x="598" y="510"/>
      <point x="644" y="510" type="curve" smooth="yes"/>
      <point x="698" y="510"/>
      <point x="758" y="487"/>
      <point x="758" y="390" type="curve" smooth="yes"/>
      <point x="758" y="370"/>
      <point x="756" y="346"/>
      <point x="750" y="319" type="curve" smooth="yes"/>
      <point x="685" y="12" type="line"/>
      <point x="584" y="-5" type="line"/>
      <point x="655" y="326" type="line" smooth="yes"/>
      <point x="658" y="342"/>
      <point x="660" y="355"/>
      <point x="660" y="366" type="curve" smooth="yes"/>
      <point x="660" y="414"/>
      <point x="632" y="420"/>
      <point x="615" y="420" type="curve" smooth="yes"/>
      <point x="572" y="420"/>
      <point x="484" y="358"/>
      <point x="465" y="269" type="curve" smooth="yes"/>
      <point x="410" y="12" type="line"/>
      <point x="309" y="-5" type="line"/>
      <point x="380" y="326" type="line" smooth="yes"/>
      <point x="383" y="342"/>
      <point x="385" y="355"/>
      <point x="385" y="366" type="curve" smooth="yes"/>
      <point x="385" y="414"/>
      <point x="357" y="420"/>
      <point x="340" y="420" type="curve" smooth="yes"/>
      <point x="308" y="420"/>
      <point x="253" y="381"/>
    </contour>
  </outline>
</glyph>
<glyph name="p" format="1">
  <advance width="544"/>
  <unicode hex="0070"/>
  <outline>
    <contour>
      <point x="355" y="497" type="curve" smooth="yes"/>
      <point x="443" y="497"/>
      <point x="481" y="418"/>
      <point x="481" y="336" type="curve" smooth="yes"/>
      <point x="481" y="185"/>
      <point x="382" y="6"/>
      <point x="201" y="6" type="curve" smooth="yes"/>
      <point x="165" y="6"/>
      <point x="133" y="13"/>
      <point x="107" y="22" type="curve"/>
      <point x="68" y="-164" type="line"/>
      <point x="-33" y="-180" type="line"/>
      <point x="109" y="486" type="line"/>
      <point x="210" y="504" type="line"/>
      <point x="200" y="458" type="line"/>
      <point x="249" y="481"/>
      <point x="291" y="497"/>
    </contour>
    <contour>
      <point x="224" y="103" type="curve" smooth="yes"/>
      <point x="326" y="103"/>
      <point x="389" y="207"/>
      <point x="389" y="313" type="curve" smooth="yes"/>
      <point x="389" y="360"/>
      <point x="372" y="407"/>
      <point x="322" y="407" type="curve" smooth="yes"/>
      <point x="252" y="407"/>
      <point x="198" y="366"/>
      <point x="175" y="343" type="curve"/>
      <point x="129" y="126" type="line"/>
      <point x="150" y="117"/>
      <point x="187" y="103"/>
    </contour>
  </outline>
</glyph>
<glyph name="t" format="1">
  <advance width="399"/>
  <unicode hex="0074"/>
  <outline>
    <contour>
      <point x="416" y="502" type="line"/>
      <point x="396" y="406" type="line"/>
      <point x="271" y="406" type="line"/>
      <point x="187" y="12" type="line"/>
      <point x="85" y="-5" type="line"/>
      <point x="173" y="406" type="line"/>
      <point x="48" y="406" type="line"/>
      <point x="68" y="502" type="line"/>
      <point x="193" y="502" type="line"/>
      <point x="223" y="644" type="line"/>
      <point x="325" y="660" type="line"/>
      <point x="291" y="502" type="line"/>
    </contour>
  </outline>
</glyph>
<glyph name="bar" format="1">
  <advance width="281"/>
  <unicode hex="007C"/>
  <outline>
    <contour>
      <point x="115" y="-52" type="line"/>
      <point x="18" y="-69" type="line"/>
      <point x="185" y="719" type="line"/>
      <point x="283" y="737" type="line"/>
    </contour>
  </outline>
</glyph>
<glyph name="asciitilde" format="1">
  <advance width="671"/>
  <unicode hex="007E"/>
  <outline>
    <contour>
      <point x="512" y="357" type="curve"/>
      <point x="592" y="314" type="line"/>
      <point x="569" y="272"/>
      <point x="492" y="136"/>
      <point x="383" y="136" type="curve" smooth="yes"/>
      <point x="315" y="136"/>
      <point x="289" y="174"/>
      <point x="268" y="214" type="curve" smooth="yes"/>
      <point x="255" y="239"/>
      <point x="243" y="261"/>
      <point x="223" y="261" type="curve" smooth="yes"/>
      <point x="176" y="261"/>
      <point x="130" y="172"/>
      <point x="124" y="157" type="curve"/>
      <point x="47" y="200" type="line"/>
      <point x="84" y="275"/>
      <point x="157" y="366"/>
      <point x="245" y="366" type="curve" smooth="yes"/>
      <point x="320" y="366"/>
      <point x="346" y="315"/>
      <point x="367" y="278" type="curve" smooth="yes"/>
      <point x="379" y="257"/>
      <point x="389" y="241"/>
      <point x="406" y="241" type="curve" smooth="yes"/>
      <point x="435" y="241"/>
      <point x="478" y="285"/>
    </contour>
  </outline>
</glyph>
<glyph name="exclamdown" format="1">
  <advance width="211"/>
  <unicode hex="00A1"/>
  <outline>
    <contour>
      <point x="58" y="321" type="line"/>
      <point x="157" y="340" type="line"/>
      <point x="50" y="-163" type="line"/>
      <point x="-49" y="-179" type="line"/>
    </contour>
    <contour>
      <point x="62" y="366" type="line"/>
      <point x="98" y="488" type="line"/>
      <point x="200" y="505" type="line"/>
      <point x="165" y="383" type="line"/>
    </contour>
  </outline>
</glyph>
<glyph name="sterling" format="1">
  <advance width="790"/>
  <unicode hex="00A3"/>
  <outline>
    <contour>
      <point x="575" y="189" type="curve"/>
      <point x="665" y="177" type="line"/>
      <point x="609" y="11"/>
      <point x="503" y="-9"/>
      <point x="456" y="-9" type="curve" smooth="yes"/>
      <point x="397" y="-9"/>
      <point x="355" y="16"/>
      <point x="306" y="52" type="curve" smooth="yes"/>
      <point x="295" y="60"/>
      <point x="280" y="65"/>
      <point x="263" y="65" type="curve" smooth="yes"/>
      <point x="236" y="65"/>
      <point x="193" y="47"/>
      <point x="123" y="-11" type="curve"/>
      <point x="76" y="64" type="line"/>
      <point x="199" y="150"/>
      <point x="203" y="210"/>
      <point x="203" y="263" type="curve" smooth="yes"/>
      <point x="203" y="273"/>
      <point x="203" y="284"/>
      <point x="202" y="298" type="curve"/>
      <point x="77" y="298" type="line"/>
      <point x="115" y="392" type="line"/>
      <point x="200" y="392" type="line"/>
      <point x="217" y="600"/>
      <point x="330" y="706"/>
      <point x="499" y="706" type="curve" smooth="yes"/>
      <point x="646" y="706"/>
      <point x="680" y="591"/>
      <point x="680" y="508" type="curve" smooth="yes"/>
      <point x="680" y="494"/>
      <point x="679" y="482"/>
      <point x="678" y="471" type="curve"/>
      <point x="583" y="466" type="line"/>
      <point x="584" y="475"/>
      <point x="584" y="483"/>
      <point x="584" y="492" type="curve" smooth="yes"/>
      <point x="584" y="566"/>
      <point x="551" y="611"/>
      <point x="472" y="611" type="curve" smooth="yes"/>
      <point x="368" y="611"/>
      <point x="302" y="541"/>
      <point x="296" y="392" type="curve"/>
      <point x="541" y="392" type="line"/>
      <point x="504" y="298" type="line"/>
      <point x="297" y="298" type="line"/>
      <point x="298" y="283"/>
      <point x="298" y="275"/>
      <point x="298" y="265" type="curve" smooth="yes"/>
      <point x="298" y="220"/>
      <point x="292" y="197"/>
      <point x="276" y="159" type="curve"/>
      <point x="289" y="159" type="line" smooth="yes"/>
      <point x="327" y="159"/>
      <point x="357" y="145"/>
      <point x="381" y="124" type="curve" smooth="yes"/>
      <point x="414" y="95"/>
      <point x="437" y="85"/>
      <point x="476" y="85" type="curve" smooth="yes"/>
      <point x="517" y="85"/>
      <point x="550" y="120"/>
    </contour>
  </outline>
</glyph>
<glyph name="dieresis" format="1">
  <advance width="526"/>
  <unicode hex="00A8"/>
  <outline>
    <contour>
      <point x="315" y="652" type="line"/>
      <point x="277" y="531" type="line"/>
      <point x="159" y="516" type="line"/>
      <point x="199" y="638" type="line"/>
    </contour>
    <contour>
      <point x="480" y="652" type="line"/>
      <point x="442" y="531" type="line"/>
      <point x="325" y="516" type="line"/>
      <point x="364" y="638" type="line"/>
    </contour>
  </outline>
</glyph>
<glyph name="copyright" format="1">
  <advance width="602"/>
  <unicode hex="00A9"/>
  <outline>
    <contour>
      <point x="259" y="177" type="curve" smooth="yes"/>
      <point x="133" y="177"/>
      <point x="46" y="268"/>
      <point x="46" y="389" type="curve" smooth="yes"/>
      <point x="46" y="563"/>
      <point x="211" y="718"/>
      <point x="374" y="718" type="curve" smooth="yes"/>
      <point x="501" y="718"/>
      <point x="588" y="626"/>
      <point x="588" y="503" type="curve" smooth="yes"/>
      <point x="588" y="330"/>
      <point x="422" y="177"/>
    </contour>
    <contour>
      <point x="355" y="630" type="curve" smooth="yes"/>
      <point x="246" y="630"/>
      <point x="135" y="525"/>
      <point x="135" y="407" type="curve" smooth="yes"/>
      <point x="135" y="326"/>
      <point x="194" y="265"/>
      <point x="278" y="265" type="curve" smooth="yes"/>
      <point x="387" y="265"/>
      <point x="498" y="368"/>
      <point x="498" y="486" type="curve" smooth="yes"/>
      <point x="498" y="568"/>
      <point x="440" y="630"/>
    </contour>
    <contour>
      <point x="287" y="318" type="curve" smooth="yes"/>
      <point x="225" y="318"/>
      <point x="183" y="363"/>
      <point x="183" y="420" type="curve" smooth="yes"/>
      <point x="183" y="516"/>
      <point x="268" y="580"/>
      <point x="353" y="580" type="curve" smooth="yes"/>
      <point x="383" y="580"/>
      <point x="417" y="567"/>
      <point x="447" y="526" type="curve"/>
      <point x="380" y="475" type="line"/>
      <point x="369" y="494"/>
      <point x="350" y="501"/>
      <point x="336" y="501" type="curve" smooth="yes"/>
      <point x="297" y="501"/>
      <point x="266" y="471"/>
      <point x="266" y="434" type="curve" smooth="yes"/>
      <point x="266" y="412"/>
      <point x="284" y="398"/>
      <point x="304" y="398" type="curve" smooth="yes"/>
      <point x="333" y="398"/>
      <point x="352" y="412"/>
      <point x="373" y="440" type="curve"/>
      <point x="446" y="419" type="line"/>
      <point x="406" y="357"/>
      <point x="347" y="318"/>
    </contour>
  </outline>
</glyph>
<glyph name="logicalnot" format="1">
  <advance width="542"/>
  <unicode hex="00AC"/>
  <outline>
    <contour>
      <point x="326" y="96" type="line"/>
      <point x="358" y="241" type="line"/>
      <point x="58" y="241" type="line"/>
      <point x="94" y="333" type="line"/>
      <point x="469" y="333" type="line"/>
      <point x="424" y="125" type="line"/>
    </contour>
  </outline>
</glyph>
<glyph name="uni00AD" format="1">
  <advance width="468"/>
  <unicode hex="00AD"/>
  <outline>
    <contour>
      <point x="398" y="301" type="line"/>
      <point x="360" y="206" type="line"/>
      <point x="48" y="206" type="line"/>
      <point x="85" y="301" type="line"/>
    </contour>
  </outline>
</glyph>
<glyph name="macron" format="1">
  <advance width="526"/>
  <unicode hex="00AF"/>
  <outline>
    <contour>
      <point x="439" y="534" type="line"/>
      <point x="163" y="534" type="line"/>
      <point x="200" y="628" type="line"/>
      <point x="476" y="628" type="line"/>
    </contour>
  </outline>
</glyph>
<glyph name="acute" format="1">
  <advance width="526"/>
  <unicode hex="00B4"/>
  <outline>
    <contour>
      <point x="190" y="570" type="line"/>
      <point x="393" y="711" type="line"/>
      <point x="461" y="638" type="line"/>
      <point x="248" y="510" type="line"/>
    </contour>
  </outline>
</glyph>
<glyph name="mu" format="1">
  <advance width="541"/>
  <unicode hex="00B5"/>
  <outline>
    <contour>
      <point x="67" y="288" type="curve" smooth="yes"/>
      <point x="84" y="368"/>
      <point x="115" y="461"/>
      <point x="126" y="493" type="curve"/>
      <point x="230" y="510" type="line"/>
      <point x="222" y="489"/>
      <point x="184" y="393"/>
      <point x="168" y="317" type="curve" smooth="yes"/>
      <point x="151" y="239"/>
      <point x="143" y="185"/>
      <point x="143" y="149" type="curve" smooth="yes"/>
      <point x="143" y="101"/>
      <point x="158" y="85"/>
      <point x="186" y="85" type="curve" smooth="yes"/>
      <point x="241" y="85"/>
      <point x="307" y="125"/>
      <point x="327" y="144" type="curve"/>
      <point x="332" y="147"/>
      <point x="336" y="159"/>
      <point x="338" y="168" type="curve" smooth="yes"/>
      <point x="407" y="492" type="line"/>
      <point x="510" y="509" type="line"/>
      <point x="404" y="13" type="line"/>
      <point x="299" y="-3" type="line"/>
      <point x="307" y="37" type="line"/>
      <point x="269" y="15"/>
      <point x="215" y="-5"/>
      <point x="165" y="-5" type="curve" smooth="yes"/>
      <point x="150" y="-5"/>
      <point x="133" y="-4"/>
      <point x="120" y="0" type="curve"/>
      <point x="100" y="-163" type="line"/>
      <point x="8" y="-146" type="line"/>
      <point x="11" y="-111"/>
      <point x="47" y="195"/>
    </contour>
  </outline>
</glyph>
<glyph name="periodcentered" format="1">
  <advance width="526"/>
  <unicode hex="00B7"/>
  <outline>
    <contour>
      <point x="327" y="321" type="line"/>
      <point x="290" y="200" type="line"/>
      <point x="172" y="185" type="line"/>
      <point x="212" y="306" type="line"/>
    </contour>
  </outline>
</glyph>
<glyph name="cedilla" format="1">
  <advance width="526"/>
  <unicode hex="00B8"/>
  <outline>
    <contour>
      <point x="117" y="-54" type="line"/>
      <point x="157" y="17" type="line"/>
      <point x="208" y="21" type="line"/>
      <point x="194" y="-33" type="line"/>
      <point x="239" y="-37"/>
      <point x="270" y="-54"/>
      <point x="270" y="-94" type="curve" smooth="yes"/>
      <point x="270" y="-159"/>
      <point x="214" y="-196"/>
      <point x="156" y="-196" type="curve" smooth="yes"/>
      <point x="125" y="-196"/>
      <point x="105" y="-186"/>
      <point x="88" y="-157" type="curve"/>
      <point x="139" y="-123" type="line"/>
      <point x="143" y="-132"/>
      <point x="154" y="-139"/>
      <point x="168" y="-139" type="curve" smooth="yes"/>
      <point x="185" y="-139"/>
      <point x="201" y="-128"/>
      <point x="201" y="-110" type="curve" smooth="yes"/>
      <point x="201" y="-97"/>
      <point x="192" y="-90"/>
      <point x="174" y="-90" type="curve" smooth="yes"/>
      <point x="167" y="-90"/>
      <point x="156" y="-93"/>
      <point x="150" y="-98" type="curve"/>
    </contour>
  </outline>
</glyph>
<glyph name="onesuperior" format="1">
  <advance width="205"/>
  <unicode hex="00B9"/>
  <outline>
    <contour>
      <point x="29" y="413" type="line"/>
      <point x="65" y="500" type="line"/>
      <point x="116" y="500" type="line"/>
      <point x="153" y="655" type="line"/>
      <point x="122" y="632" type="line"/>
      <point x="78" y="697" type="line"/>
      <point x="284" y="854" type="line"/>
      <point x="203" y="500" type="line"/>
      <point x="257" y="500" type="line"/>
      <point x="224" y="413" type="line"/>
    </contour>
  </outline>
</glyph>
<glyph name="guillemotright" format="1">
  <advance width="635"/>
  <unicode hex="00BB"/>
  <outline>
    <contour>
      <point x="303" y="50" type="line"/>
      <point x="254" y="121" type="line"/>
      <point x="426" y="252" type="line"/>
      <point x="298" y="386" type="line"/>
      <point x="374" y="457" type="line"/>
      <point x="570" y="253" type="line"/>
    </contour>
    <contour>
      <point x="78" y="51" type="line"/>
      <point x="28" y="121" type="line"/>
      <point x="200" y="252" type="line"/>
      <point x="71" y="386" type="line"/>
      <point x="147" y="457" type="line"/>
      <point x="343" y="253" type="line"/>
    </contour>
  </outline>
</glyph>
<glyph name="Acircumflex" format="1">
  <advance width="649"/>
  <unicode hex="00C2"/>
  <outline>
    <contour>
      <point x="314" y="690" type="line"/>
      <point x="268" y="756" type="line"/>
      <point x="472" y="895" type="line"/>
      <point x="593" y="751" type="line"/>
      <point x="514" y="691" type="line"/>
      <point x="440" y="773" type="line"/>
    </contour>
    <contour>
      <point x="465" y="684" type="line"/>
      <point x="539" y="45" type="line"/>
      <point x="443" y="-12" type="line"/>
      <point x="413" y="240" type="line"/>
      <point x="190" y="195" type="line"/>
      <point x="72" y="-8" type="line"/>
      <point x="-6" y="36" type="line"/>
      <point x="74" y="171" type="line"/>
      <point x="50" y="168" type="line"/>
      <point x="54" y="264" type="line"/>
      <point x="137" y="279" type="line"/>
      <point x="363" y="666" type="line"/>
    </contour>
    <contour>
      <point x="253" y="303" type="line"/>
      <point x="402" y="334" type="line"/>
      <point x="380" y="518" type="line"/>
    </contour>
  </outline>
</glyph>
<glyph name="Atilde" format="1">
  <advance width="649"/>
  <unicode hex="00C3"/>
  <outline>
    <contour>
      <point x="465" y="684" type="line"/>
      <point x="539" y="45" type="line"/>
      <point x="443" y="-12" type="line"/>
      <point x="413" y="240" type="line"/>
      <point x="190" y="195" type="line"/>
      <point x="72" y="-8" type="line"/>
      <point x="-6" y="36" type="line"/>
      <point x="74" y="171" type="line"/>
      <point x="50" y="168" type="line"/>
      <point x="54" y="264" type="line"/>
      <point x="137" y="279" type="line"/>
      <point x="363" y="666" type="line"/>
    </contour>
    <contour>
      <point x="253" y="303" type="line"/>
      <point x="402" y="334" type="line"/>
      <point x="380" y="518" type="line"/>
    </contour>
    <contour>
      <point x="580" y="870" type="curve"/>
      <point x="641" y="838" type="line"/>
      <point x="623" y="807"/>
      <point x="567" y="705"/>
      <point x="466" y="705" type="curve" smooth="yes"/>
      <point x="434" y="705"/>
      <point x="411" y="722"/>
      <point x="396" y="753" type="curve" smooth="yes"/>
      <point x="384" y="776"/>
      <point x="376" y="788"/>
      <point x="361" y="788" type="curve" smooth="yes"/>
      <point x="326" y="788"/>
      <point x="294" y="732"/>
      <point x="290" y="720" type="curve"/>
      <point x="232" y="753" type="line"/>
      <point x="259" y="809"/>
      <point x="314" y="877"/>
      <point x="392" y="877" type="curve" smooth="yes"/>
      <point x="433" y="877"/>
      <point x="453" y="860"/>
      <point x="469" y="827" type="curve" smooth="yes"/>
      <point x="478" y="808"/>
      <point x="490" y="793"/>
      <point x="503" y="793" type="curve" smooth="yes"/>
      <point x="524" y="793"/>
      <point x="555" y="816"/>
    </contour>
  </outline>
</glyph>
<glyph name="Eacute" format="1">
  <advance width="637"/>
  <unicode hex="00C9"/>
  <outline>
    <contour>
      <point x="281" y="772" type="line"/>
      <point x="486" y="906" type="line"/>
      <point x="556" y="831" type="line"/>
      <point x="340" y="710" type="line"/>
    </contour>
    <contour>
      <point x="126" y="99" type="line"/>
      <point x="536" y="99" type="line"/>
      <point x="480" y="0" type="line"/>
      <point x="6" y="0" type="line"/>
      <point x="150" y="681" type="line"/>
      <point x="649" y="681" type="line"/>
      <point x="611" y="582" type="line"/>
      <point x="228" y="582" type="line"/>
      <point x="190" y="402" type="line"/>
      <point x="556" y="402" type="line"/>
      <point x="506" y="304" type="line"/>
      <point x="169" y="304" type="line"/>
    </contour>
  </outline>
</glyph>
<glyph name="Iacute" format="1">
  <advance width="463"/>
  <unicode hex="00CD"/>
  <outline>
    <contour>
      <point x="209" y="772" type="line"/>
      <point x="414" y="906" type="line"/>
      <point x="484" y="831" type="line"/>
      <point x="268" y="710" type="line"/>
    </contour>
    <contour>
      <point x="450" y="582" type="line"/>
      <point x="344" y="582" type="line"/>
      <point x="242" y="99" type="line"/>
      <point x="366" y="99" type="line"/>
      <point x="327" y="0" type="line"/>
      <point x="-7" y="0" type="line"/>
      <point x="31" y="99" type="line"/>
      <point x="143" y="99" type="line"/>
      <point x="245" y="582" type="line"/>
      <point x="116" y="582" type="line"/>
      <point x="154" y="681" type="line"/>
      <point x="489" y="681" type="line"/>
    </contour>
  </outline>
</glyph>
<glyph name="Icircumflex" format="1">
  <advance width="463"/>
  <unicode hex="00CE"/>
  <outline>
    <contour>
      <point x="216" y="700" type="line"/>
      <point x="172" y="776" type="line"/>
      <point x="372" y="895" type="line"/>
      <point x="496" y="771" type="line"/>
      <point x="417" y="701" type="line"/>
      <point x="342" y="783" type="line"/>
    </contour>
    <contour>
      <point x="450" y="582" type="line"/>
      <point x="344" y="582" type="line"/>
      <point x="242" y="99" type="line"/>
      <point x="366" y="99" type="line"/>
      <point x="327" y="0" type="line"/>
      <point x="-7" y="0" type="line"/>
      <point x="31" y="99" type="line"/>
      <point x="143" y="99" type="line"/>
      <point x="245" y="582" type="line"/>
      <point x="116" y="582" type="line"/>
      <point x="154" y="681" type="line"/>
      <point x="489" y="681" type="line"/>
    </contour>
  </outline>
</glyph>
<glyph name="multiply" format="1">
  <advance width="380"/>
  <unicode hex="00D7"/>
  <outline>
    <contour>
      <point x="247" y="253" type="line"/>
      <point x="308" y="176" type="line"/>
      <point x="227" y="109" type="line"/>
      <point x="166" y="186" type="line"/>
      <point x="70" y="108" type="line"/>
      <point x="18" y="174" type="line"/>
      <point x="115" y="253" type="line"/>
      <point x="59" y="324" type="line"/>
      <point x="139" y="390" type="line"/>
      <point x="195" y="319" type="line"/>
      <point x="289" y="397" type="line"/>
      <point x="342" y="330" type="line"/>
    </contour>
  </outline>
</glyph>
<glyph name="Yacute" format="1">
  <advance width="654"/>
  <unicode hex="00DD"/>
  <outline>
    <contour>
      <point x="317" y="772" type="line"/>
      <point x="522" y="906" type="line"/>
      <point x="592" y="831" type="line"/>
      <point x="376" y="710" type="line"/>
    </contour>
    <contour>
      <point x="336" y="318" type="line"/>
      <point x="625" y="677" type="line"/>
      <point x="738" y="677" type="line"/>
      <point x="193" y="0" type="line"/>
      <point x="80" y="0" type="line"/>
      <point x="258" y="223" type="line"/>
      <point x="90" y="677" type="line"/>
      <point x="202" y="677" type="line"/>
    </contour>
  </outline>
</glyph>
<glyph name="germandbls" format="1">
  <advance width="551"/>
  <unicode hex="00DF"/>
  <outline>
    <contour>
      <point x="457" y="492" type="curve" smooth="yes"/>
      <point x="457" y="444"/>
      <point x="434" y="390"/>
      <point x="392" y="360" type="curve"/>
      <point x="443" y="337"/>
      <point x="477" y="292"/>
      <point x="477" y="227" type="curve" smooth="yes"/>
      <point x="477" y="101"/>
      <point x="364" y="-22"/>
      <point x="237" y="-22" type="curve" smooth="yes"/>
      <point x="203" y="-22"/>
      <point x="163" y="-14"/>
      <point x="124" y="13" type="curve"/>
      <point x="186" y="95" type="line"/>
      <point x="207" y="78"/>
      <point x="234" y="71"/>
      <point x="252" y="71" type="curve" smooth="yes"/>
      <point x="317" y="71"/>
      <point x="381" y="134"/>
      <point x="381" y="204" type="curve" smooth="yes"/>
      <point x="381" y="250"/>
      <point x="350" y="291"/>
      <point x="296" y="291" type="curve" smooth="yes"/>
      <point x="281" y="291"/>
      <point x="248" y="287"/>
      <point x="192" y="276" type="curve"/>
      <point x="240" y="375" type="line"/>
      <point x="333" y="387"/>
      <point x="362" y="434"/>
      <point x="362" y="471" type="curve" smooth="yes"/>
      <point x="362" y="506"/>
      <point x="332" y="535"/>
      <point x="295" y="535" type="curve" smooth="yes"/>
      <point x="252" y="535"/>
      <point x="204" y="499"/>
      <point x="195" y="457" type="curve" smooth="yes"/>
      <point x="105" y="33" type="line"/>
      <point x="3" y="-14" type="line"/>
      <point x="103" y="457" type="line" smooth="yes"/>
      <point x="123" y="551"/>
      <point x="220" y="627"/>
      <point x="315" y="627" type="curve" smooth="yes"/>
      <point x="397" y="627"/>
      <point x="457" y="570"/>
    </contour>
  </outline>
</glyph>
<glyph name="atilde" format="1">
  <advance width="539"/>
  <unicode hex="00E3"/>
  <outline>
    <contour>
      <point x="490" y="466" type="curve"/>
      <point x="393" y="13" type="line"/>
      <point x="293" y="-5" type="line"/>
      <point x="302" y="34" type="line"/>
      <point x="266" y="18"/>
      <point x="227" y="6"/>
      <point x="186" y="6" type="curve" smooth="yes"/>
      <point x="93" y="6"/>
      <point x="33" y="69"/>
      <point x="33" y="166" type="curve" smooth="yes"/>
      <point x="33" y="312"/>
      <point x="168" y="512"/>
      <point x="338" y="512" type="curve" smooth="yes"/>
      <point x="392" y="512"/>
      <point x="444" y="492"/>
    </contour>
    <contour>
      <point x="323" y="417" type="curve" smooth="yes"/>
      <point x="218" y="417"/>
      <point x="133" y="292"/>
      <point x="133" y="189" type="curve" smooth="yes"/>
      <point x="133" y="145"/>
      <point x="151" y="102"/>
      <point x="205" y="102" type="curve" smooth="yes"/>
      <point x="245" y="102"/>
      <point x="295" y="126"/>
      <point x="323" y="143" type="curve"/>
      <point x="382" y="404" type="line"/>
      <point x="367" y="412"/>
      <point x="342" y="417"/>
    </contour>
    <contour>
      <point x="489" y="701" type="curve"/>
      <point x="550" y="669" type="line"/>
      <point x="532" y="638"/>
      <point x="476" y="536"/>
      <point x="375" y="536" type="curve" smooth="yes"/>
      <point x="343" y="536"/>
      <point x="320" y="553"/>
      <point x="305" y="584" type="curve" smooth="yes"/>
      <point x="293" y="607"/>
      <point x="285" y="619"/>
      <point x="270" y="619" type="curve" smooth="yes"/>
      <point x="235" y="619"/>
      <point x="203" y="563"/>
      <point x="199" y="551" type="curve"/>
      <point x="141" y="584" type="line"/>
      <point x="168" y="640"/>
      <point x="223" y="708"/>
      <point x="301" y="708" type="curve" smooth="yes"/>
      <point x="342" y="708"/>
      <point x="362" y="691"/>
      <point x="378" y="658" type="curve" smooth="yes"/>
      <point x="387" y="639"/>
      <point x="399" y="624"/>
      <point x="412" y="624" type="curve" smooth="yes"/>
      <point x="433" y="624"/>
      <point x="464" y="647"/>
    </contour>
  </outline>
</glyph>
<glyph name="aring" format="1">
  <advance width="530"/>
  <unicode hex="00E5"/>
  <outline>
    <contour>
      <point x="324" y="542" type="curve" smooth="yes"/>
      <point x="257" y="542"/>
      <point x="216" y="580"/>
      <point x="216" y="632" type="curve" smooth="yes"/>
      <point x="216" y="713"/>
      <point x="304" y="782"/>
      <point x="394" y="782" type="curve" smooth="yes"/>
      <point x="463" y="782"/>
      <point x="500" y="740"/>
      <point x="500" y="690" type="curve" smooth="yes"/>
      <point x="500" y="592"/>
      <point x="397" y="542"/>
    </contour>
    <contour>
      <point x="373" y="697" type="curve" smooth="yes"/>
      <point x="349" y="697"/>
      <point x="304" y="680"/>
      <point x="304" y="650" type="curve" smooth="yes"/>
      <point x="304" y="636"/>
      <point x="321" y="626"/>
      <point x="344" y="626" type="curve" smooth="yes"/>
      <point x="373" y="626"/>
      <point x="414" y="645"/>
      <point x="414" y="670" type="curve" smooth="yes"/>
      <point x="414" y="685"/>
      <point x="397" y="697"/>
    </contour>
    <contour>
      <point x="490" y="466" type="curve"/>
      <point x="393" y="13" type="line"/>
      <point x="293" y="-5" type="line"/>
      <point x="302" y="34" type="line"/>
      <point x="266" y="18"/>
      <point x="227" y="6"/>
      <point x="186" y="6" type="curve" smooth="yes"/>
      <point x="93" y="6"/>
      <point x="33" y="69"/>
      <point x="33" y="166" type="curve" smooth="yes"/>
      <point x="33" y="312"/>
      <point x="168" y="512"/>
      <point x="338" y="512" type="curve" smooth="yes"/>
      <point x="392" y="512"/>
      <point x="444" y="492"/>
    </contour>
    <contour>
      <point x="323" y="417" type="curve" smooth="yes"/>
      <point x="218" y="417"/>
      <point x="133" y="292"/>
      <point x="133" y="189" type="curve" smooth="yes"/>
      <point x="133" y="145"/>
      <point x="151" y="102"/>
      <point x="205" y="102" type="curve" smooth="yes"/>
      <point x="245" y="102"/>
      <point x="295" y="126"/>
      <point x="323" y="143" type="curve"/>
      <point x="382" y="404" type="line"/>
      <point x="367" y="412"/>
      <point x="342" y="417"/>
    </contour>
  </outline>
</glyph>
<glyph name="ecircumflex" format="1">
  <advance width="553"/>
  <unicode hex="00EA"/>
  <outline>
    <contour>
      <point x="220" y="520" type="line"/>
      <point x="176" y="585" type="line"/>
      <point x="374" y="720" type="line"/>
      <point x="492" y="580" type="line"/>
      <point x="416" y="521" type="line"/>
      <point x="343" y="602" type="line"/>
    </contour>
    <contour>
      <point x="236" y="0" type="curve" smooth="yes"/>
      <point x="119" y="0"/>
      <point x="40" y="85"/>
      <point x="40" y="197" type="curve" smooth="yes"/>
      <point x="40" y="357"/>
      <point x="189" y="502"/>
      <point x="342" y="502" type="curve" smooth="yes"/>
      <point x="433" y="502"/>
      <point x="495" y="426"/>
      <point x="502" y="335" type="curve"/>
      <point x="146" y="158" type="line"/>
      <point x="165" y="122"/>
      <point x="206" y="92"/>
      <point x="255" y="92" type="curve" smooth="yes"/>
      <point x="296" y="92"/>
      <point x="343" y="115"/>
      <point x="391" y="156" type="curve"/>
      <point x="444" y="93" type="line"/>
      <point x="375" y="33"/>
      <point x="300" y="0"/>
    </contour>
    <contour>
      <point x="137" y="247" type="curve"/>
      <point x="389" y="375" type="line"/>
      <point x="375" y="396"/>
      <point x="349" y="410"/>
      <point x="323" y="410" type="curve" smooth="yes"/>
      <point x="233" y="410"/>
      <point x="155" y="334"/>
    </contour>
  </outline>
</glyph>
<glyph name="icircumflex" format="1">
  <advance width="300"/>
  <unicode hex="00EE"/>
  <outline>
    <contour>
      <point x="107" y="520" type="line"/>
      <point x="63" y="585" type="line"/>
      <point x="261" y="720" type="line"/>
      <point x="379" y="580" type="line"/>
      <point x="302" y="521" type="line"/>
      <point x="229" y="602" type="line"/>
    </contour>
    <contour>
      <point x="145" y="489" type="line"/>
      <point x="249" y="505" type="line"/>
      <point x="144" y="12" type="line"/>
      <point x="40" y="-5" type="line"/>
    </contour>
  </outline>
</glyph>
<glyph name="idieresis" format="1">
  <advance width="300"/>
  <unicode hex="00EF"/>
  <outline>
    <contour>
      <point x="220" y="672" type="line"/>
      <point x="185" y="561" type="line"/>
      <point x="67" y="546" type="line"/>
      <point x="104" y="658" type="line"/>
    </contour>
    <contour>
      <point x="385" y="672" type="line"/>
      <point x="351" y="561" type="line"/>
      <point x="233" y="546" type="line"/>
      <point x="270" y="658" type="line"/>
    </contour>
    <contour>
      <point x="141" y="489" type="line"/>
      <point x="244" y="505" type="line"/>
      <point x="139" y="12" type="line"/>
      <point x="36" y="-5" type="line"/>
    </contour>
  </outline>
</glyph>
<glyph name="ntilde" format="1">
  <advance width="562"/>
  <unicode hex="00F1"/>
  <outline>
    <contour>
      <point x="324" y="-5" type="line"/>
      <point x="359" y="157" type="line" smooth="yes"/>
      <point x="377" y="239"/>
      <point x="389" y="300"/>
      <point x="389" y="343" type="curve" smooth="yes"/>
      <point x="389" y="380"/>
      <point x="379" y="406"/>
      <point x="351" y="406" type="curve" smooth="yes"/>
      <point x="319" y="406"/>
      <point x="275" y="394"/>
      <point x="217" y="319" type="curve"/>
      <point x="179" y="266"/>
      <point x="144" y="193"/>
      <point x="131" y="135" type="curve" smooth="yes"/>
      <point x="104" y="13" type="line"/>
      <point x="5" y="-5" type="line"/>
      <point x="110" y="489" type="line"/>
      <point x="210" y="507" type="line"/>
      <point x="189" y="408" type="line"/>
      <point x="240" y="464"/>
      <point x="307" y="501"/>
      <point x="373" y="501" type="curve" smooth="yes"/>
      <point x="446.268" y="501"/>
      <point x="487.04" y="461.257"/>
      <point x="487.04" y="381.183" type="curve" smooth="yes"/>
      <point x="487.04" y="321.878"/>
      <point x="469.363" y="245.76"/>
      <point x="446" y="127" type="curve" smooth="yes"/>
      <point x="424" y="15" type="line"/>
    </contour>
    <contour>
      <point x="512" y="701" type="curve"/>
      <point x="573" y="669" type="line"/>
      <point x="555" y="638"/>
      <point x="499" y="536"/>
      <point x="398" y="536" type="curve" smooth="yes"/>
      <point x="366" y="536"/>
      <point x="343" y="553"/>
      <point x="328" y="584" type="curve" smooth="yes"/>
      <point x="316" y="607"/>
      <point x="308" y="619"/>
      <point x="293" y="619" type="curve" smooth="yes"/>
      <point x="258" y="619"/>
      <point x="226" y="563"/>
      <point x="222" y="551" type="curve"/>
      <point x="164" y="584" type="line"/>
      <point x="191" y="640"/>
      <point x="246" y="708"/>
      <point x="324" y="708" type="curve" smooth="yes"/>
      <point x="365" y="708"/>
      <point x="385" y="691"/>
      <point x="401" y="658" type="curve" smooth="yes"/>
      <point x="410" y="639"/>
      <point x="422" y="624"/>
      <point x="435" y="624" type="curve" smooth="yes"/>
      <point x="456" y="624"/>
      <point x="487" y="647"/>
    </contour>
  </outline>
</glyph>
<glyph name="divide" format="1">
  <advance width="433"/>
  <unicode hex="00F7"/>
  <outline>
    <contour>
      <point x="304" y="431" type="line"/>
      <point x="274" y="336" type="line"/>
      <point x="173" y="326" type="line"/>
      <point x="204" y="419" type="line"/>
    </contour>
    <contour>
      <point x="240" y="194" type="line"/>
      <point x="210" y="99" type="line"/>
      <point x="108" y="87" type="line"/>
      <point x="139" y="182" type="line"/>
    </contour>
    <contour>
      <point x="34" y="218" type="line"/>
      <point x="69" y="301" type="line"/>
      <point x="379" y="301" type="line"/>
      <point x="344" y="218" type="line"/>
    </contour>
  </outline>
</glyph>
<glyph name="Abreve" format="1">
  <advance width="649"/>
  <unicode hex="0102"/>
  <outline>
    <contour>
      <point x="465" y="684" type="line"/>
      <point x="539" y="45" type="line"/>
      <point x="443" y="-12" type="line"/>
      <point x="413" y="240" type="line"/>
      <point x="190" y="195" type="line"/>
      <point x="72" y="-8" type="line"/>
      <point x="-6" y="36" type="line"/>
      <point x="74" y="171" type="line"/>
      <point x="50" y="168" type="line"/>
      <point x="54" y="264" type="line"/>
      <point x="137" y="279" type="line"/>
      <point x="363" y="666" type="line"/>
    </contour>
    <contour>
      <point x="253" y="303" type="line"/>
      <point x="402" y="334" type="line"/>
      <point x="380" y="518" type="line"/>
    </contour>
    <contour>
      <point x="446" y="806" type="curve" smooth="yes"/>
      <point x="492" y="806"/>
      <point x="527" y="829"/>
      <point x="560" y="886" type="curve"/>
      <point x="610" y="822" type="line"/>
      <point x="573" y="755"/>
      <point x="499" y="718"/>
      <point x="432" y="718" type="curve" smooth="yes"/>
      <point x="359" y="718"/>
      <point x="303" y="752"/>
      <point x="288" y="817" type="curve"/>
      <point x="361" y="878" type="line"/>
      <point x="384" y="809"/>
      <point x="419" y="806"/>
    </contour>
  </outline>
</glyph>
<glyph name="abreve" format="1">
  <advance width="530"/>
  <unicode hex="0103"/>
  <outline>
    <contour>
      <point x="356" y="626" type="curve" smooth="yes"/>
      <point x="402" y="626"/>
      <point x="436" y="649"/>
      <point x="470" y="706" type="curve"/>
      <point x="520" y="642" type="line"/>
      <point x="483" y="575"/>
      <point x="409" y="538"/>
      <point x="342" y="538" type="curve" smooth="yes"/>
      <point x="269" y="538"/>
      <point x="213" y="572"/>
      <point x="198" y="637" type="curve"/>
      <point x="271" y="698" type="line"/>
      <point x="294" y="629"/>
      <point x="329" y="626"/>
    </contour>
    <contour>
      <point x="490" y="466" type="curve"/>
      <point x="393" y="13" type="line"/>
      <point x="293" y="-5" type="line"/>
      <point x="302" y="34" type="line"/>
      <point x="266" y="18"/>
      <point x="227" y="6"/>
      <point x="186" y="6" type="curve" smooth="yes"/>
      <point x="93" y="6"/>
      <point x="33" y="69"/>
      <point x="33" y="166" type="curve" smooth="yes"/>
      <point x="33" y="312"/>
      <point x="168" y="512"/>
      <point x="338" y="512" type="curve" smooth="yes"/>
      <point x="392" y="512"/>
      <point x="444" y="492"/>
    </contour>
    <contour>
      <point x="323" y="417" type="curve" smooth="yes"/>
      <point x="218" y="417"/>
      <point x="133" y="292"/>
      <point x="133" y="189" type="curve" smooth="yes"/>
      <point x="133" y="145"/>
      <point x="151" y="102"/>
      <point x="205" y="102" type="curve" smooth="yes"/>
      <point x="245" y="102"/>
      <point x="295" y="126"/>
      <point x="323" y="143" type="curve"/>
      <point x="382" y="404" type="line"/>
      <point x="367" y="412"/>
      <point x="342" y="417"/>
    </contour>
  </outline>
</glyph>
<glyph name="aogonek" format="1">
  <advance width="536"/>
  <unicode hex="0105"/>
  <outline>
    <contour>
      <point x="297" y="18" type="curve"/>
      <point x="302" y="39" type="line"/>
      <point x="266" y="23"/>
      <point x="227" y="11"/>
      <point x="186" y="11" type="curve" smooth="yes"/>
      <point x="92" y="11"/>
      <point x="32" y="70"/>
      <point x="32" y="167" type="curve" smooth="yes"/>
      <point x="32" y="313"/>
      <point x="168" y="512"/>
      <point x="337" y="512" type="curve" smooth="yes"/>
      <point x="391" y="512"/>
      <point x="443" y="492"/>
      <point x="489" y="466" type="curve"/>
      <point x="390" y="0" type="line"/>
      <point x="310" y="-44" type="line" smooth="yes"/>
      <point x="291" y="-54"/>
      <point x="257" y="-73"/>
      <point x="257" y="-101" type="curve" smooth="yes"/>
      <point x="257" y="-113"/>
      <point x="268" y="-122"/>
      <point x="281" y="-122" type="curve" smooth="yes"/>
      <point x="312" y="-122"/>
      <point x="336" y="-108"/>
      <point x="368" y="-85" type="curve"/>
      <point x="401" y="-131" type="line"/>
      <point x="368" y="-164"/>
      <point x="310" y="-196"/>
      <point x="255" y="-196" type="curve" smooth="yes"/>
      <point x="203" y="-196"/>
      <point x="163" y="-170"/>
      <point x="163" y="-123" type="curve" smooth="yes"/>
      <point x="163" y="-45"/>
      <point x="237" y="-12"/>
    </contour>
    <contour>
      <point x="136" y="227" type="curve" smooth="yes"/>
      <point x="133" y="215"/>
      <point x="132" y="202"/>
      <point x="132" y="189" type="curve" smooth="yes"/>
      <point x="132" y="145"/>
      <point x="150" y="102"/>
      <point x="204" y="102" type="curve" smooth="yes"/>
      <point x="244" y="102"/>
      <point x="294" y="126"/>
      <point x="322" y="143" type="curve"/>
      <point x="381" y="404" type="line"/>
      <point x="366" y="412"/>
      <point x="341" y="417"/>
      <point x="322" y="417" type="curve" smooth="yes"/>
      <point x="214" y="417"/>
      <point x="150" y="296"/>
    </contour>
  </outline>
</glyph>
<glyph name="Dcaron" format="1">
  <advance width="642"/>
  <unicode hex="010E"/>
  <outline>
    <contour>
      <point x="521" y="897" type="line"/>
      <point x="565" y="824" type="line"/>
      <point x="365" y="701" type="line"/>
      <point x="241" y="830" type="line"/>
      <point x="320" y="897" type="line"/>
      <point x="393" y="812" type="line"/>
    </contour>
    <contour>
      <point x="7" y="7" type="curve"/>
      <point x="150" y="680" type="line"/>
      <point x="197" y="680" type="line" smooth="yes"/>
      <point x="469" y="680"/>
      <point x="583" y="549"/>
      <point x="583" y="375" type="curve" smooth="yes"/>
      <point x="583" y="144"/>
      <point x="404" y="-14"/>
      <point x="158" y="-14" type="curve" smooth="yes"/>
      <point x="122" y="-14"/>
      <point x="55" y="-7"/>
    </contour>
    <contour>
      <point x="357" y="123" type="curve" smooth="yes"/>
      <point x="430" y="164"/>
      <point x="484" y="255"/>
      <point x="484" y="368" type="curve" smooth="yes"/>
      <point x="484" y="509"/>
      <point x="360" y="583"/>
      <point x="226" y="583" type="curve"/>
      <point x="121" y="86" type="line"/>
      <point x="136" y="84"/>
      <point x="158" y="83"/>
      <point x="178" y="83" type="curve" smooth="yes"/>
      <point x="227" y="83"/>
      <point x="298" y="89"/>
    </contour>
  </outline>
</glyph>
<glyph name="dcaron" format="1">
  <advance width="635"/>
  <unicode hex="010F"/>
  <outline>
    <contour>
      <point x="646" y="679" type="line"/>
      <point x="723" y="624" type="line"/>
      <point x="587" y="434" type="line"/>
      <point x="512" y="482" type="line"/>
      <point x="579" y="568" type="line"/>
      <point x="542" y="592" type="line"/>
    </contour>
    <contour>
      <point x="445" y="667" type="line"/>
      <point x="542" y="684" type="line"/>
      <point x="384" y="12" type="line"/>
      <point x="289" y="-5" type="line"/>
      <point x="300" y="47" type="line"/>
      <point x="261" y="23"/>
      <point x="219" y="5"/>
      <point x="162" y="5" type="curve" smooth="yes"/>
      <point x="64" y="5"/>
      <point x="24" y="78"/>
      <point x="24" y="163" type="curve" smooth="yes"/>
      <point x="24" y="347"/>
      <point x="152" y="496"/>
      <point x="310" y="496" type="curve" smooth="yes"/>
      <point x="340" y="496"/>
      <point x="372" y="488"/>
      <point x="401" y="479" type="curve"/>
    </contour>
    <contour>
      <point x="330" y="171" type="curve" smooth="yes"/>
      <point x="378" y="376" type="line"/>
      <point x="361" y="386"/>
      <point x="327" y="402"/>
      <point x="285" y="402" type="curve" smooth="yes"/>
      <point x="148" y="402"/>
      <point x="122" y="222"/>
      <point x="122" y="175" type="curve" smooth="yes"/>
      <point x="122" y="134"/>
      <point x="134" y="95"/>
      <point x="181" y="95" type="curve" smooth="yes"/>
      <point x="259" y="95"/>
      <point x="325" y="149"/>
    </contour>
  </outline>
</glyph>
<glyph name="Eogonek" format="1">
  <advance width="637"/>
  <unicode hex="0118"/>
  <outline>
    <contour>
      <point x="480" y="0" type="line"/>
      <point x="409" y="-34" type="line" smooth="yes"/>
      <point x="390" y="-43"/>
      <point x="357" y="-63"/>
      <point x="356" y="-91" type="curve" smooth="yes"/>
      <point x="356" y="-103"/>
      <point x="367" y="-112"/>
      <point x="380" y="-112" type="curve" smooth="yes"/>
      <point x="401" y="-112"/>
      <point x="426" y="-98"/>
      <point x="459" y="-75" type="curve"/>
      <point x="500" y="-131" type="line"/>
      <point x="467" y="-164"/>
      <point x="407" y="-196"/>
      <point x="362" y="-196" type="curve" smooth="yes"/>
      <point x="303" y="-196"/>
      <point x="262" y="-170"/>
      <point x="262" y="-119" type="curve" smooth="yes"/>
      <point x="262" y="-60"/>
      <point x="303" y="-26"/>
      <point x="344" y="0" type="curve"/>
      <point x="6" y="0" type="line"/>
      <point x="150" y="681" type="line"/>
      <point x="649" y="681" type="line"/>
      <point x="611" y="582" type="line"/>
      <point x="228" y="582" type="line"/>
      <point x="190" y="402" type="line"/>
      <point x="556" y="402" type="line"/>
      <point x="506" y="304" type="line"/>
      <point x="169" y="304" type="line"/>
      <point x="126" y="99" type="line"/>
      <point x="536" y="99" type="line"/>
    </contour>
  </outline>
</glyph>
<glyph name="eogonek" format="1">
  <advance width="553"/>
  <unicode hex="0119"/>
  <outline>
    <contour>
      <point x="239" y="-33" type="curve"/>
      <point x="220" y="-44"/>
      <point x="186" y="-63"/>
      <point x="186" y="-91" type="curve" smooth="yes"/>
      <point x="186" y="-103"/>
      <point x="197" y="-112"/>
      <point x="210" y="-112" type="curve" smooth="yes"/>
      <point x="231" y="-112"/>
      <point x="256" y="-98"/>
      <point x="289" y="-75" type="curve"/>
      <point x="328" y="-131" type="line"/>
      <point x="295" y="-164"/>
      <point x="237" y="-196"/>
      <point x="192" y="-196" type="curve" smooth="yes"/>
      <point x="133" y="-196"/>
      <point x="92" y="-170"/>
      <point x="92" y="-119" type="curve" smooth="yes"/>
      <point x="92" y="-56"/>
      <point x="134" y="-18"/>
      <point x="178" y="7" type="curve"/>
      <point x="94" y="30"/>
      <point x="40" y="103"/>
      <point x="40" y="196" type="curve" smooth="yes"/>
      <point x="40" y="356"/>
      <point x="189" y="502"/>
      <point x="342" y="502" type="curve" smooth="yes"/>
      <point x="433" y="502"/>
      <point x="495" y="426"/>
      <point x="502" y="335" type="curve"/>
      <point x="146" y="158" type="line"/>
      <point x="165" y="122"/>
      <point x="206" y="92"/>
      <point x="255" y="92" type="curve" smooth="yes"/>
      <point x="296" y="92"/>
      <point x="343" y="115"/>
      <point x="391" y="156" type="curve"/>
      <point x="444" y="93" type="line"/>
      <point x="406" y="61"/>
      <point x="370" y="34"/>
    </contour>
    <contour>
      <point x="137" y="247" type="curve"/>
      <point x="389" y="375" type="line"/>
      <point x="375" y="396"/>
      <point x="349" y="410"/>
      <point x="323" y="410" type="curve" smooth="yes"/>
      <point x="233" y="410"/>
      <point x="155" y="334"/>
    </contour>
  </outline>
</glyph>
<glyph name="Hcircumflex" format="1">
  <advance width="709"/>
  <unicode hex="0124"/>
  <outline>
    <contour>
      <point x="611" y="668" type="line"/>
      <point x="714" y="686" type="line"/>
      <point x="574" y="25" type="line"/>
      <point x="468" y="-9" type="line"/>
      <point x="538" y="322" type="line"/>
      <point x="163" y="270" type="line"/>
      <point x="111" y="25" type="line"/>
      <point x="5" y="-9" type="line"/>
      <point x="148" y="668" type="line"/>
      <point x="251" y="686" type="line"/>
      <point x="184" y="370" type="line"/>
      <point x="559" y="422" type="line"/>
    </contour>
    <contour>
      <point x="333" y="690" type="line"/>
      <point x="287" y="756" type="line"/>
      <point x="491" y="895" type="line"/>
      <point x="612" y="751" type="line"/>
      <point x="533" y="691" type="line"/>
      <point x="459" y="773" type="line"/>
    </contour>
  </outline>
</glyph>
<glyph name="Jcircumflex" format="1">
  <advance width="495"/>
  <unicode hex="0134"/>
  <outline>
    <contour>
      <point x="262" y="679" type="line"/>
      <point x="552" y="679" type="line"/>
      <point x="531" y="579" type="line"/>
      <point x="484" y="579" type="line"/>
      <point x="397" y="174" type="line" smooth="yes"/>
      <point x="375" y="72"/>
      <point x="286" y="1"/>
      <point x="175" y="1" type="curve" smooth="yes"/>
      <point x="81" y="1"/>
      <point x="22" y="57"/>
      <point x="22" y="137" type="curve" smooth="yes"/>
      <point x="22" y="149"/>
      <point x="23" y="161"/>
      <point x="26" y="174" type="curve" smooth="yes"/>
      <point x="38" y="226" type="line"/>
      <point x="140" y="244" type="line"/>
      <point x="125" y="174" type="line" smooth="yes"/>
      <point x="124" y="168"/>
      <point x="123" y="163"/>
      <point x="123" y="158" type="curve" smooth="yes"/>
      <point x="123" y="121"/>
      <point x="150" y="95"/>
      <point x="195" y="95" type="curve" smooth="yes"/>
      <point x="248" y="95"/>
      <point x="288" y="129"/>
      <point x="298" y="174" type="curve" smooth="yes"/>
      <point x="385" y="579" type="line"/>
      <point x="241" y="579" type="line"/>
    </contour>
    <contour>
      <point x="314" y="690" type="line"/>
      <point x="268" y="756" type="line"/>
      <point x="472" y="895" type="line"/>
      <point x="593" y="751" type="line"/>
      <point x="514" y="691" type="line"/>
      <point x="440" y="773" type="line"/>
    </contour>
  </outline>
</glyph>
<glyph name="jcircumflex" format="1">
  <advance width="339"/>
  <unicode hex="0135"/>
  <outline>
    <contour>
      <point x="-98" y="30" type="curve"/>
      <point x="1" y="50" type="line"/>
      <point x="8" y="13"/>
      <point x="30" y="-72"/>
      <point x="61" y="-72" type="curve" smooth="yes"/>
      <point x="87" y="-72"/>
      <point x="105" y="-31"/>
      <point x="116" y="18" type="curve" smooth="yes"/>
      <point x="119" y="34"/>
      <point x="166" y="260"/>
      <point x="213" y="499" type="curve"/>
      <point x="313" y="517" type="line"/>
      <point x="266" y="275"/>
      <point x="218" y="38"/>
      <point x="215" y="23" type="curve" smooth="yes"/>
      <point x="198" y="-52"/>
      <point x="152" y="-164"/>
      <point x="49" y="-164" type="curve" smooth="yes"/>
      <point x="-55" y="-164"/>
      <point x="-94" y="11"/>
    </contour>
    <contour>
      <point x="164" y="520" type="line"/>
      <point x="119" y="585" type="line"/>
      <point x="319" y="720" type="line"/>
      <point x="437" y="580" type="line"/>
      <point x="360" y="521" type="line"/>
      <point x="287" y="602" type="line"/>
    </contour>
  </outline>
</glyph>
<glyph name="lcaron" format="1">
  <advance width="316"/>
  <unicode hex="013E"/>
  <outline>
    <contour>
      <point x="153" y="661" type="line"/>
      <point x="248" y="679" type="line"/>
      <point x="106" y="12" type="line"/>
      <point x="11" y="-5" type="line"/>
    </contour>
    <contour>
      <point x="350" y="682" type="line"/>
      <point x="429" y="627" type="line"/>
      <point x="291" y="437" type="line"/>
      <point x="228" y="485" type="line"/>
      <point x="295" y="571" type="line"/>
      <point x="257" y="595" type="line"/>
    </contour>
  </outline>
</glyph>
<glyph name="Nacute" format="1">
  <advance width="641"/>
  <unicode hex="0143"/>
  <outline>
    <contour>
      <point x="289" y="772" type="line"/>
      <point x="494" y="906" type="line"/>
      <point x="565" y="831" type="line"/>
      <point x="349" y="710" type="line"/>
    </contour>
    <contour>
      <point x="549" y="668" type="line"/>
      <point x="649" y="686" type="line"/>
      <point x="507" y="16" type="line"/>
      <point x="409" y="-3" type="line"/>
      <point x="206" y="489" type="line"/>
      <point x="106" y="15" type="line"/>
      <point x="6" y="-4" type="line"/>
      <point x="146" y="660" type="line"/>
      <point x="239" y="685" type="line"/>
      <point x="447" y="184" type="line"/>
    </contour>
  </outline>
</glyph>
<glyph name="scircumflex" format="1">
  <advance width="486"/>
  <unicode hex="015D"/>
  <outline>
    <contour>
      <point x="221" y="219" type="curve" smooth="yes"/>
      <point x="157" y="237"/>
      <point x="90" y="268"/>
      <point x="90" y="338" type="curve" smooth="yes"/>
      <point x="90" y="473"/>
      <point x="233" y="505"/>
      <point x="287" y="505" type="curve" smooth="yes"/>
      <point x="366" y="505"/>
      <point x="445" y="488"/>
      <point x="445" y="410" type="curve" smooth="yes"/>
      <point x="445" y="394"/>
      <point x="443" y="374"/>
      <point x="430" y="347" type="curve"/>
      <point x="333" y="329" type="line"/>
      <point x="350" y="357"/>
      <point x="351" y="375"/>
      <point x="351" y="380" type="curve" smooth="yes"/>
      <point x="351" y="407"/>
      <point x="316" y="417"/>
      <point x="287" y="417" type="curve" smooth="yes"/>
      <point x="217" y="417"/>
      <point x="190" y="386"/>
      <point x="190" y="360" type="curve" smooth="yes"/>
      <point x="190" y="338"/>
      <point x="215" y="324"/>
      <point x="263" y="310" type="curve" smooth="yes"/>
      <point x="354" y="283"/>
      <point x="398" y="242"/>
      <point x="398" y="184" type="curve" smooth="yes"/>
      <point x="398" y="38"/>
      <point x="238" y="0"/>
      <point x="181" y="0" type="curve" smooth="yes"/>
      <point x="96" y="0"/>
      <point x="23" y="55"/>
      <point x="17" y="151" type="curve"/>
      <point x="114" y="167" type="line"/>
      <point x="119" y="116"/>
      <point x="158" y="91"/>
      <point x="200" y="91" type="curve" smooth="yes"/>
      <point x="259" y="91"/>
      <point x="299" y="122"/>
      <point x="299" y="156" type="curve" smooth="yes"/>
      <point x="299" y="189"/>
      <point x="264" y="206"/>
    </contour>
    <contour>
      <point x="204" y="520" type="line"/>
      <point x="159" y="585" type="line"/>
      <point x="359" y="720" type="line"/>
      <point x="477" y="580" type="line"/>
      <point x="400" y="521" type="line"/>
      <point x="327" y="602" type="line"/>
    </contour>
  </outline>
</glyph>
<glyph name="Scedilla" format="1">
  <advance width="625"/>
  <unicode hex="015E"/>
  <outline>
    <contour>
      <point x="313" y="308" type="curve"/>
      <point x="228" y="331"/>
      <point x="136" y="380"/>
      <point x="136" y="468" type="curve" smooth="yes"/>
      <point x="136" y="613"/>
      <point x="286" y="681"/>
      <point x="419" y="681" type="curve" smooth="yes"/>
      <point x="504" y="681"/>
      <point x="605" y="652"/>
      <point x="605" y="558" type="curve" smooth="yes"/>
      <point x="605" y="553.2"/>
      <point x="605.173" y="549.494"/>
      <point x="605.173" y="545.957" type="curve" smooth="yes"/>
      <point x="605.173" y="534.755"/>
      <point x="603.44" y="525.24"/>
      <point x="589" y="488" type="curve"/>
      <point x="486" y="470" type="line"/>
      <point x="506" y="499"/>
      <point x="505" y="523"/>
      <point x="505" y="525" type="curve" smooth="yes"/>
      <point x="505" y="574"/>
      <point x="440" y="588"/>
      <point x="399" y="588" type="curve" smooth="yes"/>
      <point x="344" y="588"/>
      <point x="245" y="568"/>
      <point x="245" y="490" type="curve" smooth="yes"/>
      <point x="245" y="453"/>
      <point x="284" y="428"/>
      <point x="358" y="406" type="curve" smooth="yes"/>
      <point x="479" y="370"/>
      <point x="539" y="315"/>
      <point x="539" y="237" type="curve" smooth="yes"/>
      <point x="539" y="75"/>
      <point x="361" y="0"/>
      <point x="252" y="-1" type="curve"/>
      <point x="244" y="-33" type="line"/>
      <point x="289" y="-37"/>
      <point x="320" y="-54"/>
      <point x="320" y="-94" type="curve" smooth="yes"/>
      <point x="320" y="-159"/>
      <point x="264" y="-196"/>
      <point x="206" y="-196" type="curve" smooth="yes"/>
      <point x="175" y="-196"/>
      <point x="155" y="-186"/>
      <point x="138" y="-157" type="curve"/>
      <point x="189" y="-123" type="line"/>
      <point x="193" y="-132"/>
      <point x="204" y="-139"/>
      <point x="218" y="-139" type="curve" smooth="yes"/>
      <point x="235" y="-139"/>
      <point x="251" y="-128"/>
      <point x="251" y="-110" type="curve" smooth="yes"/>
      <point x="251" y="-97"/>
      <point x="242" y="-90"/>
      <point x="224" y="-90" type="curve" smooth="yes"/>
      <point x="217" y="-90"/>
      <point x="206" y="-93"/>
      <point x="200" y="-98" type="curve"/>
      <point x="167" y="-54" type="line"/>
      <point x="199" y="4" type="line"/>
      <point x="106" y="22"/>
      <point x="43" y="90"/>
      <point x="32" y="184" type="curve"/>
      <point x="139" y="200" type="line"/>
      <point x="150" y="128"/>
      <point x="213" y="95"/>
      <point x="271" y="95" type="curve" smooth="yes"/>
      <point x="350" y="95"/>
      <point x="431" y="144"/>
      <point x="431" y="217" type="curve" smooth="yes"/>
      <point x="431" y="245"/>
      <point x="414" y="279"/>
    </contour>
  </outline>
</glyph>
<glyph name="Tcaron" format="1">
  <advance width="548"/>
  <unicode hex="0164"/>
  <outline>
    <contour>
      <point x="509" y="897" type="line"/>
      <point x="553" y="824" type="line"/>
      <point x="353" y="701" type="line"/>
      <point x="229" y="830" type="line"/>
      <point x="308" y="897" type="line"/>
      <point x="381" y="812" type="line"/>
    </contour>
    <contour>
      <point x="151" y="-5" type="line"/>
      <point x="276" y="582" type="line"/>
      <point x="77" y="582" type="line"/>
      <point x="98" y="681" type="line"/>
      <point x="611" y="681" type="line"/>
      <point x="590" y="582" type="line"/>
      <point x="376" y="582" type="line"/>
      <point x="255" y="12" type="line"/>
    </contour>
  </outline>
</glyph>
<glyph name="tcaron" format="1">
  <advance width="455"/>
  <unicode hex="0165"/>
  <outline>
    <contour>
      <point x="461" y="751" type="line"/>
      <point x="538" y="696" type="line"/>
      <point x="415" y="526" type="line"/>
      <point x="342" y="574" type="line"/>
      <point x="409" y="660" type="line"/>
      <point x="371" y="684" type="line"/>
    </contour>
    <contour>
      <point x="403" y="502" type="line"/>
      <point x="383" y="406" type="line"/>
      <point x="257" y="406" type="line"/>
      <point x="173" y="12" type="line"/>
      <point x="77" y="-5" type="line"/>
      <point x="165" y="406" type="line"/>
      <point x="39" y="406" type="line"/>
      <point x="59" y="502" type="line"/>
      <point x="185" y="502" type="line"/>
      <point x="215" y="644" type="line"/>
      <point x="311" y="660" type="line"/>
      <point x="277" y="502" type="line"/>
    </contour>
  </outline>
</glyph>
<glyph name="Ubreve" format="1">
  <advance width="710"/>
  <unicode hex="016C"/>
  <outline>
    <contour>
      <point x="288" y="0" type="curve" smooth="yes"/>
      <point x="126" y="0"/>
      <point x="73" y="89"/>
      <point x="73" y="226" type="curve" smooth="yes"/>
      <point x="73" y="346"/>
      <point x="129" y="562"/>
      <point x="152" y="668" type="curve"/>
      <point x="255" y="685" type="line"/>
      <point x="236" y="606"/>
      <point x="174" y="364"/>
      <point x="174" y="249" type="curve" smooth="yes"/>
      <point x="174" y="157"/>
      <point x="206" y="92"/>
      <point x="307" y="92" type="curve" smooth="yes"/>
      <point x="476" y="92"/>
      <point x="528" y="276"/>
      <point x="560" y="425" type="curve" smooth="yes"/>
      <point x="576" y="502"/>
      <point x="602" y="633"/>
      <point x="608" y="666" type="curve"/>
      <point x="711" y="685" type="line"/>
      <point x="707" y="662"/>
      <point x="682" y="536"/>
      <point x="668" y="467" type="curve" smooth="yes"/>
      <point x="620" y="240"/>
      <point x="548" y="0"/>
    </contour>
    <contour>
      <point x="452" y="806" type="curve" smooth="yes"/>
      <point x="498" y="806"/>
      <point x="533" y="829"/>
      <point x="566" y="886" type="curve"/>
      <point x="616" y="822" type="line"/>
      <point x="579" y="755"/>
      <point x="505" y="718"/>
      <point x="438" y="718" type="curve" smooth="yes"/>
      <point x="365" y="718"/>
      <point x="309" y="752"/>
      <point x="294" y="817" type="curve"/>
      <point x="367" y="878" type="line"/>
      <point x="390" y="809"/>
      <point x="425" y="806"/>
    </contour>
  </outline>
</glyph>
<glyph name="ubreve" format="1">
  <advance width="542"/>
  <unicode hex="016D"/>
  <outline>
    <contour>
      <point x="162" y="286" type="curve" smooth="yes"/>
      <point x="152" y="238"/>
      <point x="142" y="189"/>
      <point x="142" y="152" type="curve" smooth="yes"/>
      <point x="142" y="112"/>
      <point x="153" y="85"/>
      <point x="189" y="85" type="curve" smooth="yes"/>
      <point x="244" y="85"/>
      <point x="306" y="125"/>
      <point x="328" y="143" type="curve" smooth="yes"/>
      <point x="333" y="147"/>
      <point x="336" y="155"/>
      <point x="339" y="167" type="curve" smooth="yes"/>
      <point x="408" y="491" type="line"/>
      <point x="510" y="508" type="line"/>
      <point x="405" y="12" type="line"/>
      <point x="300" y="-4" type="line"/>
      <point x="308" y="36" type="line"/>
      <point x="269" y="14"/>
      <point x="216" y="-5"/>
      <point x="166" y="-5" type="curve" smooth="yes"/>
      <point x="70" y="-5"/>
      <point x="43" y="48"/>
      <point x="43" y="121" type="curve" smooth="yes"/>
      <point x="43" y="170"/>
      <point x="55" y="229"/>
      <point x="67" y="286" type="curve" smooth="yes"/>
      <point x="76" y="328"/>
      <point x="100" y="418"/>
      <point x="128" y="492" type="curve"/>
      <point x="231" y="509" type="line"/>
      <point x="223" y="488"/>
      <point x="178" y="359"/>
    </contour>
    <contour>
      <point x="341" y="626" type="curve" smooth="yes"/>
      <point x="387" y="626"/>
      <point x="421" y="649"/>
      <point x="455" y="706" type="curve"/>
      <point x="505" y="642" type="line"/>
      <point x="468" y="575"/>
      <point x="394" y="538"/>
      <point x="327" y="538" type="curve" smooth="yes"/>
      <point x="254" y="538"/>
      <point x="198" y="572"/>
      <point x="183" y="637" type="curve"/>
      <point x="256" y="698" type="line"/>
      <point x="279" y="629"/>
      <point x="314" y="626"/>
    </contour>
  </outline>
</glyph>
<glyph name="uhungarumlaut" format="1">
  <advance width="564"/>
  <unicode hex="0171"/>
  <outline>
    <contour>
      <point x="127" y="597" type="line"/>
      <point x="333" y="731" type="line"/>
      <point x="393" y="656" type="line"/>
      <point x="187" y="535" type="line"/>
    </contour>
    <contour>
      <point x="346" y="597" type="line"/>
      <point x="552" y="731" type="line"/>
      <point x="613" y="656" type="line"/>
      <point x="396" y="535" type="line"/>
    </contour>
    <contour>
      <point x="162" y="286" type="curve" smooth="yes"/>
      <point x="152" y="238"/>
      <point x="142" y="189"/>
      <point x="142" y="152" type="curve" smooth="yes"/>
      <point x="142" y="112"/>
      <point x="153" y="85"/>
      <point x="189" y="85" type="curve" smooth="yes"/>
      <point x="244" y="85"/>
      <point x="306" y="125"/>
      <point x="328" y="143" type="curve" smooth="yes"/>
      <point x="333" y="147"/>
      <point x="336" y="155"/>
      <point x="339" y="167" type="curve" smooth="yes"/>
      <point x="408" y="491" type="line"/>
      <point x="510" y="508" type="line"/>
      <point x="405" y="12" type="line"/>
      <point x="300" y="-4" type="line"/>
      <point x="308" y="36" type="line"/>
      <point x="269" y="14"/>
      <point x="216" y="-5"/>
      <point x="166" y="-5" type="curve" smooth="yes"/>
      <point x="70" y="-5"/>
      <point x="43" y="48"/>
      <point x="43" y="121" type="curve" smooth="yes"/>
      <point x="43" y="170"/>
      <point x="55" y="229"/>
      <point x="67" y="286" type="curve" smooth="yes"/>
      <point x="76" y="328"/>
      <point x="100" y="418"/>
      <point x="128" y="492" type="curve"/>
      <point x="231" y="509" type="line"/>
      <point x="223" y="488"/>
      <point x="178" y="359"/>
    </contour>
  </outline>
</glyph>
<glyph name="Ydieresis" format="1">
  <advance width="654"/>
  <unicode hex="0178"/>
  <outline>
    <contour>
      <point x="434" y="813" type="line"/>
      <point x="396" y="689" type="line"/>
      <point x="275" y="674" type="line"/>
      <point x="315" y="798" type="line"/>
    </contour>
    <contour>
      <point x="603" y="813" type="line"/>
      <point x="565" y="689" type="line"/>
      <point x="444" y="674" type="line"/>
      <point x="484" y="798" type="line"/>
    </contour>
    <contour>
      <point x="336" y="318" type="line"/>
      <point x="625" y="677" type="line"/>
      <point x="738" y="677" type="line"/>
      <point x="193" y="0" type="line"/>
      <point x="80" y="0" type="line"/>
      <point x="258" y="223" type="line"/>
      <point x="90" y="677" type="line"/>
      <point x="202" y="677" type="line"/>
    </contour>
  </outline>
</glyph>
<glyph name="zcaron" format="1">
  <advance width="479"/>
  <unicode hex="017E"/>
  <outline>
    <contour>
      <point x="447" y="732" type="line"/>
      <point x="488" y="657" type="line"/>
      <point x="290" y="522" type="line"/>
      <point x="172" y="662" type="line"/>
      <point x="251" y="732" type="line"/>
      <point x="322" y="649" type="line"/>
    </contour>
    <contour>
      <point x="356" y="0" type="line"/>
      <point x="0" y="0" type="line"/>
      <point x="-19" y="68" type="line"/>
      <point x="322" y="406" type="line"/>
      <point x="73" y="406" type="line"/>
      <point x="110" y="502" type="line"/>
      <point x="453" y="502" type="line"/>
      <point x="471" y="435" type="line"/>
      <point x="131" y="96" type="line"/>
      <point x="393" y="96" type="line"/>
    </contour>
  </outline>
</glyph>
<glyph name="caron" format="1">
  <advance width="526"/>
  <unicode hex="02C7"/>
  <outline>
    <contour>
      <point x="447" y="702" type="line"/>
      <point x="488" y="627" type="line"/>
      <point x="290" y="492" type="line"/>
      <point x="171" y="632" type="line"/>
      <point x="250" y="702" type="line"/>
      <point x="321" y="619" type="line"/>
    </contour>
  </outline>
</glyph>
<glyph name="breve" format="1">
  <advance width="526"/>
  <unicode hex="02D8"/>
  <outline>
    <contour>
      <point x="322" y="596" type="curve" smooth="yes"/>
      <point x="368" y="596"/>
      <point x="405" y="629"/>
      <point x="438" y="686" type="curve"/>
      <point x="489" y="622" type="line"/>
      <point x="451" y="555"/>
      <point x="375" y="508"/>
      <point x="308" y="508" type="curve" smooth="yes"/>
      <point x="235" y="508"/>
      <point x="182" y="552"/>
      <point x="167" y="617" type="curve"/>
      <point x="240" y="678" type="line"/>
      <point x="263" y="609"/>
      <point x="295" y="596"/>
    </contour>
  </outline>
</glyph>
<glyph name="dotaccent" format="1">
  <advance width="526"/>
  <unicode hex="02D9"/>
  <outline>
    <contour>
      <point x="392" y="630" type="line"/>
      <point x="356" y="509" type="line"/>
      <point x="238" y="494" type="line"/>
      <point x="277" y="616" type="line"/>
    </contour>
  </outline>
</glyph>
<glyph name="hungarumlaut" format="1">
  <advance width="526"/>
  <unicode hex="02DD"/>
  <outline>
    <contour>
      <point x="87" y="570" type="line"/>
      <point x="289" y="711" type="line"/>
      <point x="347" y="638" type="line"/>
      <point x="145" y="510" type="line"/>
    </contour>
    <contour>
      <point x="302" y="570" type="line"/>
      <point x="505" y="711" type="line"/>
      <point x="564" y="638" type="line"/>
      <point x="351" y="510" type="line"/>
    </contour>
  </outline>
</glyph>
<glyph name="endash" format="1">
  <advance width="622"/>
  <unicode hex="2013"/>
  <outline>
    <contour>
      <point x="502" y="202" type="line"/>
      <point x="51" y="202" type="line"/>
      <point x="87" y="296" type="line"/>
      <point x="540" y="296" type="line"/>
    </contour>
  </outline>
</glyph>
<glyph name="emdash" format="1">
  <advance width="903"/>
  <unicode hex="2014"/>
  <outline>
    <contour>
      <point x="765" y="202" type="line"/>
      <point x="57" y="202" type="line"/>
      <point x="95" y="298" type="line"/>
      <point x="803" y="298" type="line"/>
    </contour>
  </outline>
</glyph>
<glyph name="quoteright" format="1">
  <advance width="208"/>
  <unicode hex="2019"/>
  <outline>
    <contour>
      <point x="196" y="732" type="line"/>
      <point x="283" y="677" type="line"/>
      <point x="137" y="487" type="line"/>
      <point x="62" y="535" type="line"/>
      <point x="129" y="621" type="line"/>
      <point x="93" y="645" type="line"/>
    </contour>
  </outline>
</glyph>
<glyph name="quotesinglbase" format="1">
  <advance width="342"/>
  <unicode hex="201A"/>
  <outline>
    <contour>
      <point x="134" y="127" type="line"/>
      <point x="221" y="72" type="line"/>
      <point x="75" y="-118" type="line"/>
      <point x="0" y="-70" type="line"/>
      <point x="67" y="16" type="line"/>
      <point x="31" y="40" type="line"/>
    </contour>
  </outline>
</glyph>
<glyph name="quotedblleft" format="1">
  <advance width="374"/>
  <unicode hex="201C"/>
  <outline>
    <contour>
      <point x="326" y="489" type="line"/>
      <point x="239" y="545" type="line"/>
      <point x="387" y="735" type="line"/>
      <point x="461" y="687" type="line"/>
      <point x="393" y="600" type="line"/>
      <point x="431" y="577" type="line"/>
    </contour>
    <contour>
      <point x="135" y="489" type="line"/>
      <point x="48" y="545" type="line"/>
      <point x="196" y="735" type="line"/>
      <point x="270" y="687" type="line"/>
      <point x="202" y="600" type="line"/>
      <point x="240" y="577" type="line"/>
    </contour>
  </outline>
</glyph>
<glyph name="quotedblright" format="1">
  <advance width="374"/>
  <unicode hex="201D"/>
  <outline>
    <contour>
      <point x="180" y="732" type="line"/>
      <point x="267" y="677" type="line"/>
      <point x="121" y="487" type="line"/>
      <point x="46" y="535" type="line"/>
      <point x="113" y="621" type="line"/>
      <point x="77" y="645" type="line"/>
    </contour>
    <contour>
      <point x="371" y="732" type="line"/>
      <point x="458" y="677" type="line"/>
      <point x="312" y="487" type="line"/>
      <point x="237" y="535" type="line"/>
      <point x="304" y="621" type="line"/>
      <point x="267" y="645" type="line"/>
    </contour>
  </outline>
</glyph>
<glyph name="quotedblbase" format="1">
  <advance width="533"/>
  <unicode hex="201E"/>
  <outline>
    <contour>
      <point x="134" y="127" type="line"/>
      <point x="221" y="72" type="line"/>
      <point x="75" y="-118" type="line"/>
      <point x="0" y="-70" type="line"/>
      <point x="67" y="16" type="line"/>
      <point x="31" y="40" type="line"/>
    </contour>
    <contour>
      <point x="325" y="127" type="line"/>
      <point x="412" y="72" type="line"/>
      <point x="266" y="-118" type="line"/>
      <point x="191" y="-70" type="line"/>
      <point x="258" y="16" type="line"/>
      <point x="221" y="40" type="line"/>
    </contour>
  </outline>
</glyph>
<glyph name="bullet" format="1">
  <advance width="404"/>
  <unicode hex="2022"/>
  <outline>
    <contour>
      <point x="297" y="275" type="curve" smooth="yes"/>
      <point x="297" y="212"/>
      <point x="239" y="149"/>
      <point x="170" y="149" type="curve" smooth="yes"/>
      <point x="120" y="149"/>
      <point x="87" y="185"/>
      <point x="87" y="231" type="curve" smooth="yes"/>
      <point x="87" y="298"/>
      <point x="150" y="356"/>
      <point x="214" y="356" type="curve" smooth="yes"/>
      <point x="264" y="356"/>
      <point x="297" y="321"/>
    </contour>
  </outline>
</glyph>
<glyph name="ellipsis" format="1">
  <advance width="760"/>
  <unicode hex="2026"/>
  <outline>
    <contour>
      <point x="165" y="133" type="line"/>
      <point x="127" y="12" type="line"/>
      <point x="10" y="-4" type="line"/>
      <point x="50" y="118" type="line"/>
    </contour>
    <contour>
      <point x="398" y="133" type="line"/>
      <point x="360" y="12" type="line"/>
      <point x="243" y="-4" type="line"/>
      <point x="282" y="118" type="line"/>
    </contour>
    <contour>
      <point x="631" y="133" type="line"/>
      <point x="593" y="12" type="line"/>
      <point x="476" y="-4" type="line"/>
      <point x="515" y="118" type="line"/>
    </contour>
  </outline>
</glyph>
<glyph name="guilsinglright" format="1">
  <advance width="430"/>
  <unicode hex="203A"/>
  <outline>
    <contour>
      <point x="94" y="51" type="line"/>
      <point x="43" y="121" type="line"/>
      <point x="215" y="252" type="line"/>
      <point x="87" y="386" type="line"/>
      <point x="163" y="457" type="line"/>
      <point x="359" y="253" type="line"/>
    </contour>
  </outline>
</glyph>
<glyph name="Euro" format="1">
  <advance width="689"/>
  <unicode hex="20AC"/>
  <outline>
    <contour>
      <point x="358" y="0" type="curve" smooth="yes"/>
      <point x="227" y="0"/>
      <point x="128" y="84"/>
      <point x="128" y="206" type="curve" smooth="yes"/>
      <point x="128" y="213"/>
      <point x="128" y="220"/>
      <point x="129" y="227" type="curve"/>
      <point x="49" y="227" type="line"/>
      <point x="84" y="315" type="line"/>
      <point x="142" y="315" type="line"/>
      <point x="148" y="333"/>
      <point x="153" y="352"/>
      <point x="161" y="370" type="curve"/>
      <point x="79" y="370" type="line"/>
      <point x="115" y="457" type="line"/>
      <point x="205" y="457" type="line"/>
      <point x="249" y="534"/>
      <point x="371" y="674"/>
      <point x="512" y="674" type="curve" smooth="yes"/>
      <point x="577" y="674"/>
      <point x="635" y="646"/>
      <point x="678" y="597" type="curve"/>
      <point x="597" y="533" type="line"/>
      <point x="572" y="557"/>
      <point x="537" y="579"/>
      <point x="487" y="579" type="curve" smooth="yes"/>
      <point x="425" y="579"/>
      <point x="348" y="517"/>
      <point x="305" y="457" type="curve"/>
      <point x="507" y="457" type="line"/>
      <point x="471" y="370" type="line"/>
      <point x="255" y="370" type="line"/>
      <point x="246" y="352"/>
      <point x="239" y="333"/>
      <point x="234" y="315" type="curve"/>
      <point x="457" y="315" type="line"/>
      <point x="422" y="227" type="line"/>
      <point x="224" y="227" type="line"/>
      <point x="232" y="145"/>
      <point x="293" y="95"/>
      <point x="372" y="95" type="curve" smooth="yes"/>
      <point x="422" y="95"/>
      <point x="466" y="110"/>
      <point x="507" y="132" type="curve"/>
      <point x="562" y="66" type="line"/>
      <point x="493" y="25"/>
      <point x="419" y="0"/>
    </contour>
  </outline>
</glyph>
<glyph name=".notdef" format="1">
  <advance width="526"/>
  <outline>
    <contour>
      <point x="15" y="681" type="line"/>
      <point x="492" y="681" type="line"/>
      <point x="492" y="0" type="line"/>
      <point x="15" y="0" type="line"/>
    </contour>
    <contour>
      <point x="202" y="342" type="line"/>
      <point x="99" y="511" type="line"/>
      <point x="99" y="183" type="line"/>
    </contour>
    <contour>
      <point x="143" y="597" type="line"/>
      <point x="253" y="418" type="line"/>
      <point x="369" y="597" type="line"/>
    </contour>
    <contour>
      <point x="251" y="263" type="line"/>
      <point x="135" y="84" type="line"/>
      <point x="361" y="84" type="line"/>
    </contour>
    <contour>
      <point x="301" y="339" type="line"/>
      <point x="408" y="167" type="line"/>
      <point x="408" y="502" type="line"/>
    </contour>
  </outline>
</glyph>
